<?xml version="1.0" encoding="UTF-8" standalone="no"?>
<!-- Created with Inkscape (http://www.inkscape.org/) -->

<svg
   width="89.990143mm"
   height="83.973175mm"
   viewBox="0 0 89.990143 83.973175"
   version="1.1"
   id="svg2244"
   inkscape:version="1.2 (1:1.2+202206011326+fc4e4096c5)"
   sodipodi:docname="github_breaks_user_rights_logo.svg"
   inkscape:export-filename="github_breaks_user_rights_logo.png"
   inkscape:export-xdpi="541.92603"
   inkscape:export-ydpi="541.92603"
   xmlns:inkscape="http://www.inkscape.org/namespaces/inkscape"
   xmlns:sodipodi="http://sodipodi.sourceforge.net/DTD/sodipodi-0.dtd"
   xmlns="http://www.w3.org/2000/svg"
   xmlns:svg="http://www.w3.org/2000/svg">
  <sodipodi:namedview
     id="namedview2246"
     pagecolor="#ffffff"
     bordercolor="#000000"
     borderopacity="0.25"
     inkscape:showpageshadow="2"
     inkscape:pageopacity="0.0"
     inkscape:pagecheckerboard="0"
     inkscape:deskcolor="#d1d1d1"
     inkscape:document-units="mm"
     showgrid="false"
     inkscape:zoom="1.4550472"
     inkscape:cx="130.23633"
     inkscape:cy="113.74202"
     inkscape:window-width="1920"
     inkscape:window-height="1016"
     inkscape:window-x="0"
     inkscape:window-y="0"
     inkscape:window-maximized="1"
     inkscape:current-layer="g1703" />
  <defs
     id="defs2241" />
  <g
     inkscape:label="Layer 1"
     inkscape:groupmode="layer"
     id="layer1"
     transform="translate(-61.145975,-67.073988)">
    <g
       id="g1703"
       transform="translate(35.834712,36.402314)">
      <path
         id="path41384"
         style="font-variation-settings:normal;fill:#333333;fill-opacity:1;stroke-width:0.086136;stroke-linecap:round;stroke-linejoin:miter;stroke-miterlimit:4.2;stroke-dasharray:none;stroke-dashoffset:0;stroke-opacity:1;paint-order:fill markers stroke;stop-color:#000000"
         d="m 55.9568,30.671674 a 5.1952487,5.1952487 0 0 0 -1.292594,3.424158 5.1952487,5.1952487 0 0 0 5.19518,5.195175 5.1952487,5.1952487 0 0 0 4.640334,-2.864033 z" />
      <path
         id="path41386"
         style="font-variation-settings:normal;fill:#000000;fill-opacity:1;stroke-width:0.086136;stroke-linecap:round;stroke-linejoin:miter;stroke-miterlimit:4.2;stroke-dasharray:none;stroke-dashoffset:0;stroke-opacity:1;paint-order:fill markers stroke;stop-color:#000000"
         d="m 55.9568,30.671674 c -0.831958,0.946804 0.699107,7.490585 5.723404,7.999651 1.963757,-9.44e-4 1.938337,-0.489397 2.819516,-2.244351 z"
         sodipodi:nodetypes="cccc" />
      <path
         id="path41388"
         style="font-variation-settings:normal;fill:#333333;fill-opacity:1;stroke-width:0.086136;stroke-linecap:round;stroke-linejoin:miter;stroke-miterlimit:4.2;stroke-dasharray:none;stroke-dashoffset:0;stroke-opacity:1;paint-order:fill markers stroke;stop-color:#000000"
         d="m 86.604132,30.671674 a 5.1952487,5.1952487 0 0 1 1.292594,3.424158 5.1952487,5.1952487 0 0 1 -5.195171,5.195175 5.1952487,5.1952487 0 0 1 -4.640333,-2.864033 z" />
      <path
         id="path41390"
         style="font-variation-settings:normal;fill:#000000;fill-opacity:1;stroke-width:0.086136;stroke-linecap:round;stroke-linejoin:miter;stroke-miterlimit:4.2;stroke-dasharray:none;stroke-dashoffset:0;stroke-opacity:1;paint-order:fill markers stroke;stop-color:#000000"
         d="m 86.604295,30.67172 c 1.295553,3.642465 -4.020925,7.00923 -4.654382,7.000244 -0.04991,-2.4e-5 -0.09698,-2.92e-4 -0.143489,-7.86e-4 0.804351,0.481211 -0.04201,1.618815 0.895285,1.619904 2.869199,-3.8e-5 5.195142,-2.325975 5.195181,-5.195176 -0.0019,-1.260393 -0.460637,-2.477355 -1.292595,-3.424159 z"
         sodipodi:nodetypes="cccccc" />
      <path
         style="font-variation-settings:normal;fill:#2a638e;fill-opacity:1;stroke:none;stroke-width:0.369558;stroke-linecap:round;stroke-linejoin:miter;stroke-miterlimit:4.2;stroke-dasharray:none;stroke-dashoffset:0;stroke-opacity:1;paint-order:fill markers stroke;stop-color:#000000"
         d="m 45.63985,77.641482 h -1.99187 l -0.96725,2.410472 3.04981,-0.149651 0.5512,-0.649831 v 0 z"
         id="path48317"
         sodipodi:nodetypes="ccccccc" />
      <path
         style="font-variation-settings:normal;fill:#7cbae6;fill-opacity:1;stroke:none;stroke-width:0.369558;stroke-linecap:round;stroke-linejoin:miter;stroke-miterlimit:4.2;stroke-dasharray:none;stroke-dashoffset:0;stroke-opacity:1;paint-order:fill markers stroke;stop-color:#000000"
         d="m 44.73197,78.194234 -1.08399,-0.552752 -0.70911,0.578972 -0.25814,1.8315 0.99583,0.253903 1.2092,-0.261444 0.82153,-0.184226 -0.58998,-0.550859 z"
         id="path48319"
         sodipodi:nodetypes="ccccccccc" />
      <path
         style="font-variation-settings:normal;fill:#2a638e;fill-opacity:1;stroke:none;stroke-width:0.369558;stroke-linecap:round;stroke-linejoin:miter;stroke-miterlimit:4.2;stroke-dasharray:none;stroke-dashoffset:0;stroke-opacity:1;paint-order:fill markers stroke;stop-color:#000000"
         d="m 43.77325,86.1976 h 1.99187 l 0.96725,-2.410472 -2.95912,0.799482 h -0.64189 v 0 z"
         id="path48293"
         sodipodi:nodetypes="ccccccc" />
      <path
         style="font-variation-settings:normal;fill:#7cbae6;fill-opacity:1;stroke:none;stroke-width:0.369558;stroke-linecap:round;stroke-linejoin:miter;stroke-miterlimit:4.2;stroke-dasharray:none;stroke-dashoffset:0;stroke-opacity:1;paint-order:fill markers stroke;stop-color:#000000"
         d="m 44.44406,85.928293 1.32106,0.269307 0.96725,-2.410472 -1.43767,0.675885 -1.52145,0.123597 v 0 z"
         id="path48295"
         sodipodi:nodetypes="ccccccc" />
      <path
         style="font-variation-settings:normal;fill:#2a638e;fill-opacity:1;stroke:none;stroke-width:0.369558;stroke-linecap:round;stroke-linejoin:miter;stroke-miterlimit:4.2;stroke-dasharray:none;stroke-dashoffset:0;stroke-opacity:1;paint-order:fill markers stroke;stop-color:#000000"
         d="m 74.52081,87.89889 h -1.99187 l -0.96725,2.410472 3.04981,-0.149651 0.5512,-0.649831 v 0 z"
         id="path48281"
         sodipodi:nodetypes="ccccccc" />
      <path
         style="font-variation-settings:normal;fill:#7cbae6;fill-opacity:1;stroke:none;stroke-width:0.369558;stroke-linecap:round;stroke-linejoin:miter;stroke-miterlimit:4.2;stroke-dasharray:none;stroke-dashoffset:0;stroke-opacity:1;paint-order:fill markers stroke;stop-color:#000000"
         d="m 73.61293,88.451642 -1.08399,-0.552752 -0.70911,0.578972 -0.25814,1.8315 0.99583,0.253903 1.2092,-0.261444 0.82153,-0.184226 -0.58998,-0.550859 z"
         id="path48283"
         sodipodi:nodetypes="ccccccccc" />
      <path
         style="font-variation-settings:normal;fill:#2a638e;fill-opacity:1;stroke:none;stroke-width:0.236064;stroke-linecap:round;stroke-linejoin:miter;stroke-miterlimit:4.2;stroke-dasharray:none;stroke-dashoffset:0;stroke-opacity:1;paint-order:fill markers stroke;stop-color:#000000"
         d="m 67.717271,86.744822 -0.966943,-0.08061 -0.617854,1.539745 1.315388,0.379186 0.98914,-0.266527 -0.0045,-0.623347 -0.399067,-0.23151 z"
         id="path48311"
         sodipodi:nodetypes="cccccccc" />
      <path
         style="font-variation-settings:normal;fill:#7cbae6;fill-opacity:1;stroke:none;stroke-width:0.236064;stroke-linecap:round;stroke-linejoin:miter;stroke-miterlimit:4.2;stroke-dasharray:none;stroke-dashoffset:0;stroke-opacity:1;paint-order:fill markers stroke;stop-color:#000000"
         d="m 67.212812,86.976277 -0.462484,-0.31207 -0.617854,1.539745 1.335247,0.169389 0.179534,-0.482285 -0.15206,-0.177383 z"
         id="path48313"
         sodipodi:nodetypes="ccccccc" />
      <path
         style="font-variation-settings:normal;fill:#2a638e;fill-opacity:1;stroke:none;stroke-width:0.18018;stroke-linecap:round;stroke-linejoin:miter;stroke-miterlimit:4.2;stroke-dasharray:none;stroke-dashoffset:0;stroke-opacity:1;paint-order:fill markers stroke;stop-color:#000000"
         d="m 97.076044,83.33994 -0.738038,-0.06153 -0.471588,1.17524 1.003995,0.289421 0.75498,-0.203432 -0.0034,-0.475781 -0.304596,-0.176705 z"
         id="path48275"
         sodipodi:nodetypes="cccccccc" />
      <path
         style="font-variation-settings:normal;fill:#7cbae6;fill-opacity:1;stroke:none;stroke-width:0.18018;stroke-linecap:round;stroke-linejoin:miter;stroke-miterlimit:4.2;stroke-dasharray:none;stroke-dashoffset:0;stroke-opacity:1;paint-order:fill markers stroke;stop-color:#000000"
         d="m 96.691007,83.516602 -0.353001,-0.238193 -0.471588,1.17524 1.019153,0.129289 0.137032,-0.368113 -0.116063,-0.135391 z"
         id="path48277"
         sodipodi:nodetypes="ccccccc" />
      <path
         style="font-variation-settings:normal;fill:#2a638e;fill-opacity:1;stroke:none;stroke-width:0.238082;stroke-linecap:round;stroke-linejoin:miter;stroke-miterlimit:4.2;stroke-dasharray:none;stroke-dashoffset:0;stroke-opacity:1;paint-order:fill markers stroke;stop-color:#000000"
         d="m 97.72613,76.998392 h -1.283229 l -0.623135,1.552907 1.96479,-0.09641 0.355101,-0.418643 v 0 z"
         id="path48287"
         sodipodi:nodetypes="ccccccc" />
      <path
         style="font-variation-settings:normal;fill:#7cbae6;fill-opacity:1;stroke:none;stroke-width:0.238082;stroke-linecap:round;stroke-linejoin:miter;stroke-miterlimit:4.2;stroke-dasharray:none;stroke-dashoffset:0;stroke-opacity:1;paint-order:fill markers stroke;stop-color:#000000"
         d="m 97.141244,77.354494 -0.698343,-0.356102 -0.456832,0.372993 -0.166303,1.179914 0.641547,0.163573 0.779007,-0.168431 0.529258,-0.118685 -0.380085,-0.354882 z"
         id="path48289"
         sodipodi:nodetypes="ccccccccc" />
      <path
         style="font-variation-settings:normal;fill:#2a638e;fill-opacity:1;stroke:none;stroke-width:0.369558;stroke-linecap:round;stroke-linejoin:miter;stroke-miterlimit:4.2;stroke-dasharray:none;stroke-dashoffset:0;stroke-opacity:1;paint-order:fill markers stroke;stop-color:#000000"
         d="m 100.44767,79.04248 -0.515531,1.923999 -2.57868,0.310415 1.538117,-2.651369 0.166133,-0.620018 v 0 z"
         id="path48299"
         sodipodi:nodetypes="ccccccc" />
      <path
         style="font-variation-settings:normal;fill:#7cbae6;fill-opacity:1;stroke:none;stroke-width:0.369558;stroke-linecap:round;stroke-linejoin:miter;stroke-miterlimit:4.2;stroke-dasharray:none;stroke-dashoffset:0;stroke-opacity:1;paint-order:fill markers stroke;stop-color:#000000"
         d="m 100.01392,79.620731 -0.08178,1.345748 -2.57868,0.310415 1.024951,-1.21375 0.513166,-1.437619 v 0 z"
         id="path48301"
         sodipodi:nodetypes="ccccccc" />
      <path
         id="ellipse41392"
         style="font-variation-settings:normal;fill:#000000;fill-opacity:1;stroke:none;stroke-width:0.449945;stroke-linecap:round;stroke-linejoin:miter;stroke-miterlimit:4.2;stroke-dasharray:none;stroke-dashoffset:0;stroke-opacity:1;paint-order:fill markers stroke;stop-color:#000000;opacity:0.2"
         d="M 71.307401 75.919039 A 27.819027 7.9952264 0 0 0 69.487947 75.902164 A 27.819027 7.9952264 0 0 0 41.668859 83.897272 A 27.819027 7.9952264 0 0 0 69.487809 91.892434 A 27.819027 7.9952264 0 0 0 97.306897 83.897326 A 27.819027 7.9952264 0 0 0 97.255254 83.446598 C 99.237171 84.299111 100.86108 85.24112 102.41066 86.684439 C 105.36252 89.76159 106.43773 93.166352 103.69644 94.204754 C 98.561591 95.362264 90.741252 97.070616 81.78416 97.07062 C 66.420172 97.070616 57.520542 102.16337 59.922763 105.86837 C 61.749418 108.68568 68.254162 111.76441 78.34101 108.36994 C 81.048762 107.45874 80.761465 112.63443 82.140548 114.76734 C 83.963875 117.58736 84.315026 112.64548 90.977838 110.28899 C 92.633495 109.70341 94.64582 104.09182 96.51729 102.9586 C 104.33543 98.620388 115.04405 96.638514 111.27244 87.828629 C 110.37584 85.667074 104.91751 84.128523 101.06226 82.394426 C 98.508001 81.245529 96.246924 80.852853 94.995825 80.715068 A 27.819027 7.9952264 0 0 0 71.307401 75.919039 z "
         transform="rotate(-0.66154756)" />
      <path
         style="font-variation-settings:normal;fill:#1a1a1a;fill-opacity:1;stroke:none;stroke-width:0.449945;stroke-linecap:round;stroke-linejoin:miter;stroke-miterlimit:4.2;stroke-dasharray:none;stroke-dashoffset:0;stroke-opacity:1;paint-order:fill markers stroke;stop-color:#000000"
         d="m 57.418592,58.622054 -4.799085,2.161128 -2.039843,9.836454 1.056861,8.699985 -0.05492,2.203663 3.137492,0.287142 3.630149,-1.760468 4.487806,-1.09738 3.01449,1.33163 3.91756,0.494083 4.915218,1.035864 6.99212,-0.06119 6.964533,0.715112 2.369507,-1.185048 2.200214,-5.557595 -0.763099,-14.807136 -1.377911,-3.05386 -7.508906,-1.288514 -6.578228,0.481433 -5.10175,0.523971 -8.918432,-0.777765 -3.595653,1.07812 z"
         id="path41396" />
      <path
         d="m 76.315892,81.739814 -1.930291,-0.125036 0.21781,-3.36281 -2.859485,-0.185203 -0.217811,3.3628 -1.941363,-0.125739 -0.845101,-0.68501 2.448262,-7.879263 0.859796,0.636972 -0.207058,3.19688 2.859486,0.18521 1.277562,-3.708836 0.859796,0.636973 z"
         style="font-weight:900;font-size:11.2889px;font-family:Roboto;-inkscape-font-specification:'Roboto Heavy';font-variant-ligatures:no-common-ligatures;fill:#2a638e;fill-opacity:1;stroke:none;stroke-width:0.402203;stroke-linecap:round;stroke-miterlimit:4.2;stroke-dasharray:none;paint-order:fill markers stroke"
         id="path41398"
         sodipodi:nodetypes="cccccccccccccc" />
      <path
         id="path41400"
         style="fill:#333333;stroke-width:0.086136;stroke-linecap:round;stroke-miterlimit:4.2;paint-order:fill markers stroke;stop-color:#000000"
         d="m 86.814956,45.216744 c 0,6.75523 -7.151113,12.231425 -15.972434,12.231427 -8.821341,2e-6 -15.972444,-5.476195 -15.972444,-12.231427 0,-6.755232 7.151103,-12.231428 15.972444,-12.231426 8.821321,10e-7 15.972434,5.476196 15.972434,12.231426 z"
         sodipodi:nodetypes="sssss" />
      <path
         id="path41402"
         style="font-variation-settings:normal;fill:#333333;fill-opacity:1;stroke-width:0.086136;stroke-linecap:round;stroke-linejoin:miter;stroke-miterlimit:4.2;stroke-dasharray:none;stroke-dashoffset:0;stroke-opacity:1;paint-order:fill markers stroke;stop-color:#000000"
         d="m 29.50466,36.051265 c 7.219711,-8.256991 13.221565,3.247871 10.582579,3.608843 -0.845728,0.115681 -5.628557,-2.042061 -6.914301,0.05944 4.879739,9.387558 21.69714,13.959554 30.776107,14.501016 -2.514991,3.724834 1.075477,6.768149 -3.613527,6.349564 C 48.795039,59.539915 24.702152,43.535352 29.50466,36.051265 Z"
         sodipodi:nodetypes="csccsc" />
      <path
         d="m 69.793659,68.087776 q 0.05069,-0.640302 -0.378288,-1.034112 -0.420715,-0.39315 -1.529648,-0.865938 -1.108914,-0.472789 -1.804042,-0.887683 -2.261719,-1.342338 -2.101609,-3.363028 0.07969,-1.006186 0.722436,-1.725099 0.651689,-0.726565 1.757991,-1.065662 1.106987,-0.347413 2.445796,-0.24133 1.305554,0.103449 2.299791,0.650827 1.002533,0.548036 1.507784,1.458323 0.505916,0.901971 0.418277,2.007945 l -2.91044,-0.230617 q 0.05868,-0.740089 -0.366445,-1.183793 -0.416755,-0.443045 -1.190097,-0.504324 -0.781658,-0.06194 -1.266713,0.251079 -0.476054,0.305359 -0.518221,0.837557 -0.0369,0.465672 0.431729,0.887724 0.46929,0.413738 1.692669,0.920698 1.224006,0.49864 1.993725,1.028227 1.872871,1.286423 1.715401,3.273851 -0.125865,1.588277 -1.395121,2.399794 -1.269276,0.811516 -3.356498,0.64613 -1.471833,-0.116624 -2.62777,-0.735389 -1.146957,-0.62642 -1.68154,-1.589237 -0.525564,-0.970471 -0.430678,-2.167918 l 2.927062,0.231934 q -0.07709,0.972926 0.384956,1.478134 0.471024,0.49755 1.601937,0.587161 0.723457,0.05731 1.163627,-0.217406 0.449122,-0.282386 0.493929,-0.847848 z"
         style="font-weight:900;font-size:11.2889px;font-family:Roboto;-inkscape-font-specification:'Roboto Heavy';font-variant-ligatures:no-common-ligatures;font-variation-settings:normal;fill:#2a638e;fill-opacity:1;stroke:none;stroke-width:0.449945;stroke-linecap:round;stroke-linejoin:miter;stroke-miterlimit:4.2;stroke-dasharray:none;stroke-dashoffset:0;stroke-opacity:1;paint-order:fill markers stroke;stop-color:#000000"
         id="path41404" />
      <path
         id="path41406"
         style="font-variation-settings:normal;fill:#000000;fill-opacity:1;stroke-width:0.086136;stroke-linecap:round;stroke-linejoin:miter;stroke-miterlimit:4.2;stroke-dasharray:none;stroke-dashoffset:0;stroke-opacity:1;paint-order:fill markers stroke;stop-color:#000000"
         d="m 39.454639,35.684796 c 0.160901,0.805513 -0.0048,1.403284 -0.574755,1.481199 -0.845728,0.115681 -5.628422,-2.042154 -6.914166,0.05935 0.399362,0.768273 0.879878,1.503783 1.428365,2.207979 1.538321,-1.602416 5.890048,0.33665 6.69304,0.226815 1.090558,-0.149172 0.704388,-2.201071 -0.632484,-3.975341 z m -10.290764,4.25906 c 2.529368,8.083792 21.373718,19.751602 31.171469,20.626244 4.688995,0.418585 1.098584,-2.624739 3.613566,-6.34957 -0.669053,-0.0399 -1.38429,-0.104205 -2.129525,-0.188198 -0.421659,2.579178 2.320162,2.830109 -1.348444,2.502613 C 51.643829,55.746952 34.130905,47.73947 29.163875,39.943856 Z"
         sodipodi:nodetypes="ssccssscsccsc" />
      <path
         id="path41408"
         style="fill:#f4cab1;stroke-width:0.0635929;stroke-linecap:round;stroke-miterlimit:4.2;paint-order:fill markers stroke;stop-color:#000000"
         d="m 82.563829,47.506865 c 0,4.987275 -5.279544,9.030261 -11.792189,9.030261 -6.512646,0 -11.792189,-4.042986 -11.792189,-9.030261 0,-4.987276 5.279543,-4.035478 11.792189,-4.035478 6.512645,0 11.792189,-0.951798 11.792189,4.035478 z"
         sodipodi:nodetypes="sssss" />
      <path
         id="path41410"
         style="opacity:0.3;fill:#000000;fill-opacity:1;stroke-width:0.0635929;stroke-linecap:round;stroke-miterlimit:4.2;paint-order:fill markers stroke;stop-color:#000000"
         d="m 79.903932,35.144182 c 1.296709,1.805478 1.976785,3.83256 1.977094,5.893095 -0.0019,0.905904 0.696408,3.669226 0.433713,4.552515 -1.925444,-3.201704 -6.940105,-2.118446 -11.543118,-2.118533 -6.512694,-4.3e-5 -11.792305,-0.951815 -11.792285,4.035499 0.0019,0.135585 0.0087,0.271112 0.01908,0.406476 0.284,-4.822079 5.469863,-3.625737 11.773186,-3.628615 4.460922,0.0016 9.371226,-1.203505 11.369547,1.850665 -1.903783,5.311122 -9.040549,7.132414 -16.232634,7.133281 -3.242062,-0.0028 -6.406274,-0.760939 -9.072145,-2.173837 2.80326,3.917568 8.172495,6.353255 14.00596,6.353634 8.821485,2.2e-5 15.972685,-5.476341 15.972493,-12.231691 -2e-5,-4.023586 -2.5841,-7.789816 -6.910919,-10.072487 z"
         sodipodi:nodetypes="cccccccccccccc" />
      <path
         id="path41412"
         style="font-variation-settings:normal;fill:#ac5c51;fill-opacity:1;stroke-width:0.0305665;stroke-linecap:round;stroke-linejoin:miter;stroke-miterlimit:4.2;stroke-dasharray:none;stroke-dashoffset:0;stroke-opacity:1;paint-order:fill markers stroke;stop-color:#000000"
         d="m 75.720283,46.222425 a 1.8436056,1.8436056 0 0 1 0.27841,1.268613 1.8436056,1.8436056 0 0 1 -2.090494,1.558019 1.8436056,1.8436056 0 0 1 -1.482656,-1.243491 z" />
      <path
         style="font-variation-settings:normal;fill:#ac5c51;fill-opacity:1;stroke-width:0.131247;stroke-linecap:round;stroke-linejoin:miter;stroke-miterlimit:4.2;stroke-dasharray:none;stroke-dashoffset:0;stroke-opacity:1;paint-order:fill markers stroke;stop-color:#000000"
         d="m 74.309536,47.940153 4.206119,-2.999261 -2.98154,1.373361 z"
         id="path41414"
         sodipodi:nodetypes="cccc" />
      <path
         style="font-variation-settings:normal;fill:none;fill-opacity:1;stroke:#000000;stroke-width:0.322498;stroke-linecap:round;stroke-linejoin:miter;stroke-miterlimit:4.2;stroke-dasharray:none;stroke-dashoffset:0;stroke-opacity:1;paint-order:fill markers stroke;stop-color:#000000"
         d="m 57.937272,47.905196 c 0,0 -9.222517,-1.574005 -11.715268,-4.589495"
         id="path41418" />
      <path
         style="font-variation-settings:normal;fill:none;fill-opacity:1;stroke:#000000;stroke-width:0.322498;stroke-linecap:round;stroke-linejoin:miter;stroke-miterlimit:4.2;stroke-dasharray:none;stroke-dashoffset:0;stroke-opacity:1;paint-order:fill markers stroke;stop-color:#000000"
         d="m 57.873512,48.91148 c 0,0 -9.330696,-0.685848 -12.100095,-3.449434"
         id="path41420" />
      <path
         id="path41424"
         style="font-variation-settings:normal;fill:#ac5c51;fill-opacity:1;stroke-width:0.0305665;stroke-linecap:round;stroke-linejoin:miter;stroke-miterlimit:4.2;stroke-dasharray:none;stroke-dashoffset:0;stroke-opacity:1;paint-order:fill markers stroke;stop-color:#000000"
         d="m 65.221514,46.222425 a 1.8436056,1.8436056 0 0 0 -0.27841,1.268613 1.8436056,1.8436056 0 0 0 2.090494,1.558019 1.8436056,1.8436056 0 0 0 1.482656,-1.243491 z" />
      <path
         style="font-variation-settings:normal;fill:#ac5c51;fill-opacity:1;stroke-width:0.131247;stroke-linecap:round;stroke-linejoin:miter;stroke-miterlimit:4.2;stroke-dasharray:none;stroke-dashoffset:0;stroke-opacity:1;paint-order:fill markers stroke;stop-color:#000000"
         d="m 66.632261,47.940153 -4.206119,-2.999261 2.98154,1.373361 z"
         id="path41426"
         sodipodi:nodetypes="cccc" />
      <path
         d="m 69.064276,68.959672 q 0.05078,-0.640302 -0.378288,-1.034112 -0.420705,-0.393151 -1.529648,-0.865939 -1.108905,-0.472788 -1.804042,-0.887683 -2.26172,-1.342338 -2.101609,-3.363027 0.07969,-1.006186 0.722436,-1.725099 0.651688,-0.726565 1.758001,-1.065663 1.106977,-0.347412 2.445785,-0.241329 1.305565,0.103449 2.299792,0.650827 1.002533,0.548035 1.507784,1.458323 0.505926,0.90197 0.418287,2.007945 l -2.910441,-0.230617 q 0.05868,-0.740089 -0.366455,-1.183794 -0.416744,-0.443044 -1.190096,-0.504323 -0.781659,-0.06194 -1.266713,0.251078 -0.476054,0.305359 -0.518221,0.837558 -0.0369,0.465671 0.431729,0.887723 0.46929,0.413739 1.692669,0.920698 1.224016,0.49864 1.993725,1.028228 1.872871,1.286423 1.715401,3.27385 -0.125865,1.588278 -1.395121,2.399795 -1.269266,0.811516 -3.356489,0.64613 -1.471842,-0.116625 -2.627779,-0.735389 -1.146957,-0.62642 -1.68153,-1.589237 -0.525574,-0.970472 -0.430689,-2.167918 l 2.927073,0.231934 q -0.07709,0.972925 0.384946,1.478134 0.471024,0.497549 1.601937,0.58716 0.723457,0.05731 1.163627,-0.217405 0.449122,-0.282387 0.493929,-0.847848 z"
         style="font-weight:900;font-size:11.2889px;font-family:Roboto;-inkscape-font-specification:'Roboto Heavy';font-variant-ligatures:no-common-ligatures;fill:#7cbae6;fill-opacity:1;stroke:none;stroke-width:0.427347;stroke-linecap:round;stroke-miterlimit:4.2;stroke-dasharray:none;paint-order:fill markers stroke"
         id="path41430" />
      <path
         style="font-variation-settings:normal;fill:#2a638e;fill-opacity:1;stroke:none;stroke-width:0.525921;stroke-linecap:round;stroke-linejoin:miter;stroke-miterlimit:4.2;stroke-dasharray:none;stroke-dashoffset:0;stroke-opacity:1;paint-order:fill markers stroke;stop-color:#000000"
         d="m 62.787383,69.494658 1.00395,0.306631 0.665844,-0.689437 0.09727,-1.199879 0.08961,0.953185 0.0555,1.017965 0.994555,0.445255 0.331467,1.092247 -0.498728,-0.942465 -1.013431,-0.41338 -0.141784,-0.463861 -0.496839,0.637958 -0.894976,-0.338845 z"
         id="path41432" />
      <path
         id="path41434"
         style="font-weight:900;font-size:11.2889px;font-family:Roboto;-inkscape-font-specification:'Roboto Heavy';font-variant-ligatures:no-common-ligatures;fill:none;fill-opacity:1;stroke:none;stroke-width:0.427347;stroke-linecap:round;stroke-miterlimit:4.2;stroke-dasharray:none;paint-order:fill markers stroke"
         d="m 64.517922,72.09078 c -0.753049,-0.415674 -1.305998,-0.941269 -1.658857,-1.576783 -0.350382,-0.64698 -0.493938,-1.369621 -0.430678,-2.167918 l 2.927062,0.231933 c -0.05136,0.648617 0.0769,1.141329 0.384956,1.478135 0.314007,0.331699 0.847992,0.527419 1.601937,0.587159 0.482308,0.03822 0.870174,-0.03426 1.163627,-0.217404 0.299408,-0.188257 0.464058,-0.470875 0.493929,-0.847848 v 0 c 0.03382,-0.426868 -0.09231,-0.771572 -0.378288,-1.034112 -0.280473,-0.262101 -0.790359,-0.550748 -1.529648,-0.865939 -0.739279,-0.315192 -1.34062,-0.611087 -1.804041,-0.887684 -1.507814,-0.89489 -2.208347,-2.015901 -2.101609,-3.363026 0.05309,-0.67079 0.293944,-1.245824 0.722435,-1.725099 0.434456,-0.484377 1.020456,-0.839598 1.757991,-1.065663 0.737988,-0.231609 1.553257,-0.312051 2.445796,-0.241329 0.870376,0.06896 1.636963,0.285909 2.299791,0.650827 0.668349,0.365357 1.17095,0.851464 1.507784,1.458323 0.337278,0.601312 0.47671,1.270629 0.418278,2.007943 l -2.910441,-0.230616 c 0.03912,-0.493392 -0.08306,-0.887989 -0.366445,-1.183793 -0.277833,-0.295362 -0.674536,-0.46347 -1.190097,-0.504323 -0.521102,-0.0413 -0.94334,0.0424 -1.266712,0.251078 -0.31737,0.203572 -0.490113,0.482758 -0.518222,0.837557 -0.02467,0.310447 0.119313,0.606357 0.431729,0.887724 0.31286,0.275825 0.877083,0.582724 1.692669,0.920697 0.816001,0.332428 1.480583,0.675171 1.993725,1.028229 1.248578,0.857614 1.820384,1.948899 1.715401,3.27385 -0.08393,1.058851 -0.54895,1.858784 -1.395121,2.399795 -0.654358,0.418363 -1.471756,0.642001 -2.452194,0.67091" />
      <path
         id="path41436"
         style="font-variation-settings:normal;fill:#333333;fill-opacity:1;stroke-width:0.086136;stroke-linecap:round;stroke-linejoin:miter;stroke-miterlimit:4.2;stroke-dasharray:none;stroke-dashoffset:0;stroke-opacity:1;paint-order:fill markers stroke;stop-color:#000000"
         d="m 45.760719,62.181174 c -0.505483,7.078341 4.678106,9.619611 1.605184,15.345603 -1.970001,3.670861 0.813235,8.817582 4.55255,8.494961 10.943676,0.733469 7.052461,-11.645655 4.931175,-10.034858 -0.679816,0.516218 -3.163625,5.423943 -5.558764,4.847126 V 66.194621 c -1.93e-4,-3.701481 3.628087,-6.702171 7.329571,-6.701985 3.70132,3.9e-5 8.245863,-2.92885 6.090215,-5.244217 -8.056583,-8.653534 -18.998371,-1.921798 -18.949931,7.932755 z"
         sodipodi:nodetypes="cscscccsc" />
      <path
         d="m 78.856794,67.342644 -4.1219,0.146914 0.09231,2.59112 4.868628,-0.17353 0.07188,2.016146 -7.489605,0.266948 -1.342586,-10.134913 0.955067,-0.737334 7.50453,-0.267481 0.07217,2.023611 -4.883545,0.174063 0.08162,2.29243 4.1219,-0.146914 z"
         style="font-weight:900;font-size:11.2889px;font-family:Roboto;-inkscape-font-specification:'Roboto Heavy';font-variant-ligatures:no-common-ligatures;font-variation-settings:normal;fill:#2a638e;fill-opacity:1;stroke:none;stroke-width:0.449945;stroke-linecap:round;stroke-linejoin:miter;stroke-miterlimit:4.2;stroke-dasharray:none;stroke-dashoffset:0;stroke-opacity:1;paint-order:fill markers stroke;stop-color:#000000"
         id="path41438"
         sodipodi:nodetypes="cccccccccccccc" />
      <path
         d="m 77.868301,68.019024 -4.121901,0.146915 0.09231,2.59112 4.868628,-0.17353 0.07188,2.016146 -7.489605,0.266946 -0.387519,-10.872247 7.504531,-0.267479 0.07217,2.023611 -4.883545,0.174061 0.08162,2.292432 4.1219,-0.146915 z"
         style="font-weight:900;font-size:11.2889px;font-family:Roboto;-inkscape-font-specification:'Roboto Heavy';font-variant-ligatures:no-common-ligatures;fill:#7cbae6;fill-opacity:1;stroke:none;stroke-width:0.382792;stroke-linecap:round;stroke-miterlimit:4.2;stroke-dasharray:none;paint-order:fill markers stroke"
         id="path41440" />
      <path
         d="m 68.343459,79.984087 c -0.299302,0.332556 -0.737159,0.600445 -1.313572,0.803667 -0.576422,0.203231 -1.20828,0.304842 -1.895554,0.304842 -1.056764,0 -1.901085,-0.323315 -2.532933,-0.969944 -0.631848,-0.64663 -0.969935,-1.546367 -1.01427,-2.699211 l -0.0067,-0.698357 c 0,-0.794427 0.140415,-1.487243 0.421245,-2.078446 0.28082,-0.594898 0.681724,-1.051232 1.20272,-1.369003 0.524687,-0.321466 1.130672,-0.482199 1.817946,-0.482199 1.005039,0 1.784693,0.230939 2.338952,0.692815 0.439813,0.361176 1.314776,0.580223 1.46529,1.223811 l -0.489805,0.832464 h -1.873381 c -0.06649,-0.450791 -0.210604,-0.772257 -0.432317,-0.964398 -0.221694,-0.192141 -0.535778,-0.288212 -0.942232,-0.288212 -0.487742,0 -0.864633,0.206921 -1.130672,0.620763 -0.266048,0.413843 -0.400913,1.005044 -0.404603,1.773608 v 0.487743 c 0,0.805511 0.136714,1.411496 0.410134,1.81795 0.277121,0.402753 0.711297,0.604135 1.302501,0.604135 0.506224,0 0.883115,-0.112702 1.130681,-0.338096 v -1.252606 h -1.352385 v -1.335754 h 3.297805 z"
         style="font-weight:900;font-size:11.2889px;font-family:Roboto;-inkscape-font-specification:'Roboto Heavy';font-variant-ligatures:no-common-ligatures;fill:#2a638e;fill-opacity:1;stroke:none;stroke-width:0.402203;stroke-linecap:round;stroke-miterlimit:4.2;stroke-dasharray:none;paint-order:fill markers stroke"
         id="path41442"
         sodipodi:nodetypes="csssccccsccccssscscscccccc" />
      <path
         style="font-variation-settings:normal;fill:#2a638e;fill-opacity:1;stroke:none;stroke-width:0.449945;stroke-linecap:round;stroke-linejoin:miter;stroke-miterlimit:4.2;stroke-dasharray:none;stroke-dashoffset:0;stroke-opacity:1;paint-order:fill markers stroke;stop-color:#000000"
         d="m 65.534726,75.837195 -0.489814,0.832464 0.287748,0.394956 0.691003,-0.394956 z"
         id="path41444" />
      <path
         id="path41446"
         style="font-variation-settings:normal;fill:#000000;fill-opacity:1;stroke-width:0.086136;stroke-linecap:round;stroke-linejoin:miter;stroke-miterlimit:4.2;stroke-dasharray:none;stroke-dashoffset:0;stroke-opacity:1;paint-order:fill markers stroke;stop-color:#000000"
         d="m 64.132648,53.966076 c 0.176752,1.724882 -3.849791,4.252995 -6.88043,4.252963 -3.701484,-1.87e-4 -7.329783,3.000508 -7.329591,6.701986 v 14.639659 c 0.457216,0.110109 0.917699,0.01927 1.368199,-0.201613 V 66.194515 c -1.84e-4,-3.701477 3.628106,-6.702171 7.32959,-6.701984 3.70132,3.8e-5 8.889881,-3.770969 6.090234,-5.243954 -0.189558,-0.09973 -0.382604,-0.193371 -0.578002,-0.282501 z m -6.868645,21.876159 c -0.016,-2.24e-4 -0.0317,0.0027 -0.0476,0.0037 1.406597,2.850703 1.406048,9.443259 -6.666213,8.902239 -0.886854,-0.186417 -1.706632,-0.549673 -2.423411,-1.049518 0.94147,1.164456 2.268706,2.002889 3.791618,2.323014 10.259679,0.687621 7.480875,-10.149324 5.345559,-10.179393 z" />
      <path
         d="m 60.378609,80.80902 -1.921262,0.268034 -1.115062,-7.992512 1.921272,-0.268031 z"
         style="font-weight:900;font-size:11.2889px;font-family:Roboto;-inkscape-font-specification:'Roboto Heavy';font-variant-ligatures:no-common-ligatures;fill:#7cbae6;fill-opacity:1;stroke:none;stroke-width:0.402203;stroke-linecap:round;stroke-miterlimit:4.2;stroke-dasharray:none;paint-order:fill markers stroke"
         id="path41450" />
      <path
         d="m 68.833273,79.151628 q -0.448948,0.498824 -1.313572,0.803667 -0.864633,0.304833 -1.895553,0.304833 -1.585152,0 -2.532934,-0.969945 -0.947772,-0.969934 -1.014269,-2.699205 l -0.0067,-0.698358 q 0,-1.191642 0.421245,-2.078445 0.421216,-0.892348 1.20272,-1.369005 0.787026,-0.482198 1.817937,-0.482198 1.507572,0 2.338952,0.692815 0.83692,0.687272 0.975485,2.056275 h -1.873372 q -0.09974,-0.676187 -0.432317,-0.964398 -0.332556,-0.288212 -0.942231,-0.288212 -0.731619,0 -1.130682,0.620762 -0.399063,0.620764 -0.404594,1.773609 v 0.487742 q 0,1.208271 0.410135,1.817946 0.415685,0.604135 1.3025,0.604135 0.759332,0 1.130672,-0.338096 v -1.252605 h -1.352376 v -1.335749 h 3.297806 z"
         style="font-weight:900;font-size:11.2889px;font-family:Roboto;-inkscape-font-specification:'Roboto Heavy';font-variant-ligatures:no-common-ligatures;fill:#7cbae6;fill-opacity:1;stroke:none;stroke-width:0.402203;stroke-linecap:round;stroke-miterlimit:4.2;stroke-dasharray:none;paint-order:fill markers stroke"
         id="path41452" />
      <path
         id="path41454"
         style="font-weight:900;font-size:11.2889px;font-family:Roboto;-inkscape-font-specification:'Roboto Heavy';font-variant-ligatures:no-common-ligatures;opacity:0.2;fill:#000000;fill-opacity:1;stroke:none;stroke-width:0.427347;stroke-linecap:round;stroke-miterlimit:4.2;stroke-dasharray:none;paint-order:fill markers stroke"
         d="m 65.512631,71.962824 c -0.352907,0 -0.68421,0.04288 -0.994237,0.127634 0.0077,0.0041 0.01474,0.0085 0.02236,0.0126 0.770616,0.412509 1.646234,0.657973 2.627462,0.735723 0.315866,0.02503 0.617047,0.03251 0.904815,0.02398 -0.06919,-0.07342 -0.143065,-0.142465 -0.22153,-0.206896 -0.55425,-0.461877 -1.333817,-0.693043 -2.338865,-0.693043 z" />
      <path
         d="m 75.456096,81.102839 -1.930291,-0.125036 0.21781,-3.362809 -2.859485,-0.185203 -0.217811,3.362809 -1.941363,-0.125749 0.521593,-8.053045 1.941364,0.125747 -0.207058,3.196881 2.859486,0.185209 0.207077,-3.196879 1.930281,0.125015 z"
         style="font-weight:900;font-size:11.2889px;font-family:Roboto;-inkscape-font-specification:'Roboto Heavy';font-variant-ligatures:no-common-ligatures;fill:#7cbae6;fill-opacity:1;stroke:none;stroke-width:0.402203;stroke-linecap:round;stroke-miterlimit:4.2;stroke-dasharray:none;paint-order:fill markers stroke"
         id="path41456" />
      <path
         d="m 85.22624,75.633128 -2.418728,-0.127413 -0.345516,6.558801 -1.942722,-0.102343 0.345506,-6.558793 -2.37445,-0.125082 0.07901,-1.499945 6.73592,0.354837 z"
         style="font-weight:900;font-size:11.2889px;font-family:Roboto;-inkscape-font-specification:'Roboto Heavy';font-variant-ligatures:no-common-ligatures;font-variation-settings:normal;fill:#2a638e;fill-opacity:1;stroke:none;stroke-width:0.449945;stroke-linecap:round;stroke-linejoin:miter;stroke-miterlimit:4.2;stroke-dasharray:none;stroke-dashoffset:0;stroke-opacity:1;paint-order:fill markers stroke;stop-color:#000000"
         id="path41458" />
      <path
         d="m 84.442125,74.800664 -2.418738,-0.127414 -0.345506,6.558798 -1.942732,-0.102334 0.345516,-6.558799 -2.374451,-0.125081 0.07901,-1.499945 6.73592,0.354836 z"
         style="font-weight:900;font-size:11.2889px;font-family:Roboto;-inkscape-font-specification:'Roboto Heavy';font-variant-ligatures:no-common-ligatures;fill:#7cbae6;fill-opacity:1;stroke:none;stroke-width:0.402203;stroke-linecap:round;stroke-miterlimit:4.2;stroke-dasharray:none;paint-order:fill markers stroke"
         id="path41460" />
      <path
         id="path41462"
         style="font-variation-settings:normal;fill:#333333;fill-opacity:1;stroke-width:0.086136;stroke-linecap:round;stroke-linejoin:miter;stroke-miterlimit:4.2;stroke-dasharray:none;stroke-dashoffset:0;stroke-opacity:1;paint-order:fill markers stroke;stop-color:#000000"
         d="m 83.505212,50.414505 c -2.084929,0.08313 -4.145075,0.772359 -5.847312,1.981826 -0.58786,0.409147 -1.143845,0.923079 -1.400777,1.608744 -0.205073,0.506464 -0.232506,1.123844 0.08258,1.592788 0.168079,0.297376 0.456965,0.489491 0.681425,0.738535 0.1469,0.162375 0.341748,0.282016 0.561717,0.30776 0.235638,0.04913 0.421216,0.219137 0.530844,0.428148 0.257348,0.430789 0.370541,0.926304 0.546561,1.39228 0.295313,0.863338 0.586964,1.733791 1.021159,2.53956 0.25834,0.21994 0.633092,0.127052 0.903341,-0.01997 1.599393,-0.63724 3.291899,-1.149669 5.029982,-1.120056 0.93724,-0.01916 1.890698,0.234167 2.652217,0.791493 0.851056,0.605327 1.43615,1.539809 1.693546,2.545145 0.359979,1.332137 0.309612,2.72451 0.364441,4.091126 0.03671,1.611452 0.12598,3.223725 0.350083,4.821021 0.252693,1.963017 0.567133,3.948526 0.343984,5.930451 -0.10641,0.912148 -0.358852,1.832072 -0.89093,2.59125 -0.298396,0.328816 -0.782843,0.333577 -1.193585,0.307502 -0.955057,-0.09376 -1.79534,-0.680057 -2.379403,-1.417804 -0.910684,-1.079168 -1.60585,-2.315459 -2.438405,-3.452232 -0.328807,-0.331348 -0.941191,-0.208134 -1.166045,0.184355 -0.812908,0.995136 -1.154618,2.286639 -1.257057,3.546404 -0.115651,1.500827 0.267609,3.078722 1.23287,4.255772 0.887297,1.050164 2.213907,1.645241 3.554353,1.849013 1.593766,0.279278 3.296842,0.128505 4.747023,-0.622319 1.587165,-0.779017 2.994678,-2.008024 3.800185,-3.599121 0.573203,-1.15454 0.634806,-2.50521 0.373132,-3.751745 -0.331929,-1.907293 -1.064926,-3.709091 -1.643188,-5.548385 -0.484553,-1.487151 -0.898571,-3.029612 -0.856954,-4.606944 0.0067,-1.820984 0.461774,-3.600911 0.972672,-5.336661 0.286698,-1.001081 0.469126,-2.044743 0.393185,-3.088934 -0.07429,-1.43083 -0.555715,-2.830795 -1.346961,-4.022929 -1.204878,-1.919971 -3.046962,-3.437449 -5.17561,-4.223559 -1.350323,-0.503806 -2.798711,-0.738901 -4.239054,-0.692513 z"
         sodipodi:nodetypes="sccsssscssssssssscsssscssssscsccs" />
      <path
         style="font-variation-settings:normal;fill:#1a1a1a;fill-opacity:1;stroke:none;stroke-width:0.572026;stroke-linecap:round;stroke-linejoin:miter;stroke-miterlimit:4.2;stroke-dasharray:none;stroke-dashoffset:0;stroke-opacity:1;paint-order:fill markers stroke;stop-color:#000000"
         d="m 76.207025,55.972023 c 0,0 5.118951,-0.864314 6.333966,-0.556562 1.215006,0.30775 3.503986,2.055746 4.111494,3.271179 0.607508,1.21543 -1.305526,0.20587 -1.305526,0.20587 l -2.330655,-1.219222 -2.987008,1.205749 -2.107111,0.09978 z"
         id="path50279-9" />
      <path
         id="path41464"
         style="font-variation-settings:normal;fill:#000000;fill-opacity:1;stroke-width:0.086136;stroke-linecap:round;stroke-linejoin:miter;stroke-miterlimit:4.2;stroke-dasharray:none;stroke-dashoffset:0;stroke-opacity:1;paint-order:fill markers stroke;stop-color:#000000"
         d="m 77.321644,55.888304 c -0.157278,0.14494 -0.273574,0.350772 -0.259621,0.569963 0.189057,0.138791 0.429859,0.166024 0.654454,0.204327 -0.09832,-0.288311 -0.196641,-0.576621 -0.294966,-0.864931 -0.03324,0.03021 -0.06658,0.06043 -0.09987,0.09065 z m 16.332298,0.944818 c 0.307233,1.539153 0.110081,3.116792 -0.11777,4.652074 -0.353196,2.397091 -0.801364,4.805719 -0.686995,7.23953 0.121779,2.296356 0.815693,4.505249 1.203963,6.760641 0.177889,1.040393 0.354497,2.104891 0.212203,3.160653 -0.08191,0.642872 -0.339127,1.250862 -0.69586,1.788403 -0.924231,1.387046 -2.309514,2.447722 -3.862722,3.040092 -1.706294,0.652777 -3.630872,0.624187 -5.358789,0.06697 -0.743047,-0.232178 -1.443262,-0.604511 -2.034919,-1.112258 -0.0087,-0.234886 -0.489496,-0.212945 -0.332951,0.04452 0.47777,1.249242 1.447936,2.294742 2.652265,2.874074 0.641802,0.319827 1.344561,0.492879 2.05235,0.587928 1.35625,0.208079 2.785212,0.119505 4.052531,-0.43673 1.758242,-0.773342 3.311045,-2.092156 4.204105,-3.808722 0.640125,-1.244926 0.778362,-2.711979 0.496867,-4.074579 -0.327641,-1.923901 -1.09155,-3.731572 -1.679381,-5.582927 -0.472836,-1.435289 -0.848753,-2.94143 -0.732505,-4.464308 0.143238,-2.438712 1.090066,-4.748616 1.236822,-7.186754 0.07487,-1.296411 -0.09279,-2.633971 -0.66913,-3.809762 0.01995,0.08705 0.03999,0.174113 0.05994,0.261169 z m -9.331419,0.795797 c -1.678302,0.08025 -3.274062,0.666597 -4.824437,1.26948 -0.193519,0.07496 -0.461023,0.138641 -0.508027,0.375886 -0.04837,0.284785 0.14558,0.529602 0.230213,0.787626 0.15404,0.366608 0.331206,0.725669 0.560985,1.051312 0.508055,0.0946 0.954382,-0.230758 1.418527,-0.375255 1.557708,-0.561701 3.211602,-0.985224 4.880172,-0.849546 1.31678,0.04967 2.5526,0.801322 3.29133,1.878042 0.04856,0.08708 0.203694,0.31441 0.134672,0.07649 -0.190069,-1.401735 -0.957187,-2.745623 -2.154058,-3.522611 -0.892423,-0.578643 -1.985978,-0.7279 -3.029377,-0.69143 z"
         sodipodi:nodetypes="cccccscccssccsccccss" />
      <path
         style="font-variation-settings:normal;fill:#2a638e;fill-opacity:1;stroke:none;stroke-width:0.525921;stroke-linecap:round;stroke-linejoin:miter;stroke-miterlimit:4.2;stroke-dasharray:none;stroke-dashoffset:0;stroke-opacity:1;paint-order:fill markers stroke;stop-color:#000000"
         d="m 62.136937,80.500294 1.00395,-0.306626 0.665853,0.689433 0.09727,1.199877 0.08961,-0.953178 0.0555,-1.01797 0.994564,-0.445258 0.331467,-1.092243 -0.498728,0.942462 -1.013441,0.413382 -0.141774,0.463865 -0.496848,-0.637957 -0.894967,0.338838 z"
         id="path41466" />
      <path
         style="font-variation-settings:normal;fill:#2a638e;fill-opacity:1;stroke:none;stroke-width:0.525921;stroke-linecap:round;stroke-linejoin:miter;stroke-miterlimit:4.2;stroke-dasharray:none;stroke-dashoffset:0;stroke-opacity:1;paint-order:fill markers stroke;stop-color:#000000"
         d="m 64.302192,72.906166 -0.716131,0.387456 -0.921361,-0.264136 -0.684177,-0.990488 0.398984,0.870281 0.460921,0.909338 -0.63869,0.882885 0.259063,1.111645 -0.03932,-1.06556 0.670975,-0.864719 -0.10915,-0.472608 0.749261,0.304063 0.605643,-0.740927 z"
         id="path41466-6"
         sodipodi:nodetypes="cccccccccccccc" />
      <path
         d="m 60.592951,59.309072 0.879666,8.323616 c 0.09968,0.943286 -0.01474,1.782614 -0.3433,2.517981 -0.329154,0.729545 -0.850218,1.314511 -1.563191,1.754901 -0.712973,0.440391 -1.581875,0.714738 -2.606667,0.823043 -1.548872,0.163686 -2.81121,-0.109165 -3.786994,-0.818555 -0.975803,-0.709388 -1.54628,-1.76189 -1.711421,-3.157503 l -0.886121,-8.384758 1.79348,-0.362623 1.289666,0.03679 0.892577,8.445896 c 0.182071,1.387939 0.901934,2.015453 2.159589,1.882541 0.634681,-0.06708 1.096589,-0.292523 1.385725,-0.676348 0.289156,-0.383824 0.392193,-0.968773 0.309121,-1.754846 l -0.877805,-8.306149 1.77601,-0.360777 z"
         style="font-weight:900;font-size:11.2889px;font-family:Roboto;-inkscape-font-specification:'Roboto Heavy';font-variant-ligatures:no-common-ligatures;font-variation-settings:normal;fill:#2a638e;fill-opacity:1;stroke:none;stroke-width:0.449945;stroke-linecap:round;stroke-linejoin:miter;stroke-miterlimit:4.2;stroke-dasharray:none;stroke-dashoffset:0;stroke-opacity:1;paint-order:fill markers stroke;stop-color:#000000"
         id="path41468"
         sodipodi:nodetypes="cccssscccccsssccc" />
      <path
         d="m 59.303286,59.272281 0.879666,8.323617 q 0.149521,1.414929 -0.3433,2.517981 -0.493736,1.094316 -1.563191,1.754901 -1.069474,0.660586 -2.606668,0.823042 -2.323312,0.24553 -3.787003,-0.818555 -1.463699,-1.064083 -1.711411,-3.157503 l -0.886121,-8.384758 3.083145,-0.325832 0.892578,8.445895 q 0.273092,2.081909 2.159579,1.882541 0.952021,-0.100611 1.385735,-0.676347 0.433733,-0.575738 0.309121,-1.754846 l -0.877805,-8.306149 z"
         style="font-weight:900;font-size:11.2889px;font-family:Roboto;-inkscape-font-specification:'Roboto Heavy';font-variant-ligatures:no-common-ligatures;font-variation-settings:normal;fill:#7cbae6;fill-opacity:1;stroke:none;stroke-width:0.449945;stroke-linecap:round;stroke-linejoin:miter;stroke-miterlimit:4.2;stroke-dasharray:none;stroke-dashoffset:0;stroke-opacity:1;paint-order:fill markers stroke;stop-color:#000000"
         id="path41470" />
      <path
         style="font-variation-settings:normal;fill:#2a638e;fill-opacity:1;stroke:none;stroke-width:0.449945;stroke-linecap:round;stroke-linejoin:miter;stroke-miterlimit:4.2;stroke-dasharray:none;stroke-dashoffset:0;stroke-opacity:1;paint-order:fill markers stroke;stop-color:#000000"
         d="m 59.522726,67.505927 -0.65668,-0.612637 0.225992,-0.78826 0.847413,-0.585328 -0.744559,0.341335 -0.778007,0.394289 -0.755332,-0.546411 -0.951049,0.221631 0.911618,-0.03366 0.73979,0.574043 0.404334,-0.09339 -0.260141,0.641013 0.6339,0.518159 z"
         id="path41472" />
      <path
         d="m 53.97062,77.493658 -1.096156,0.307271 0.831216,2.965356 -2.024975,0.567615 -1.084766,-0.416851 -1.269786,-7.983081 3.305726,-0.926617 c 0.996135,-0.279227 1.836968,-0.27639 2.522497,0.0085 0.685511,0.284901 1.141465,0.831195 1.367861,1.638883 0.163869,0.584611 0.180501,1.102643 0.04982,1.554096 -0.126799,0.450374 -0.408699,0.865407 -0.845708,1.2451 l 2.703094,2.894898 0.02399,0.08663 -2.169206,0.608047 -1.084766,-0.416851 z m -1.534389,-1.256188 1.280752,-0.358999 c 0.384599,-0.107833 0.645039,-0.288692 0.781301,-0.542576 0.139008,-0.258826 0.157827,-0.569007 0.05647,-0.930542 -0.101216,-0.361566 -0.278537,-0.616766 -0.531933,-0.765598 -0.254379,-0.152706 -0.571951,-0.175692 -0.952725,-0.06895 l -1.280742,0.359006 z"
         style="font-weight:900;font-size:11.2889px;font-family:Roboto;-inkscape-font-specification:'Roboto Heavy';font-variant-ligatures:no-common-ligatures;fill:#2a638e;fill-opacity:1;stroke:none;stroke-width:0.434787;stroke-linecap:round;stroke-miterlimit:4.2;stroke-dasharray:none;paint-order:fill markers stroke"
         id="path41474"
         sodipodi:nodetypes="ccccccsssccccccccccccscc" />
      <path
         d="m 52.885854,77.076809 -1.096156,0.307264 0.831215,2.965361 -2.024974,0.567615 -2.354552,-8.399932 3.305726,-0.926617 q 1.494207,-0.418841 2.522497,0.0085 1.028271,0.427351 1.367861,1.638882 0.245813,0.876918 0.04991,1.554097 -0.190204,0.675561 -0.845718,1.245099 l 2.703094,2.894899 0.02399,0.08653 -2.169205,0.608038 z m -1.534389,-1.25619 1.280751,-0.358999 q 0.576904,-0.161748 0.781312,-0.542576 0.208502,-0.388239 0.05647,-0.930543 -0.151843,-0.542349 -0.531942,-0.765597 -0.381565,-0.229058 -0.952725,-0.06896 l -1.280743,0.359007 z"
         style="font-weight:900;font-size:11.2889px;font-family:Roboto;-inkscape-font-specification:'Roboto Heavy';font-variant-ligatures:no-common-ligatures;fill:#7cbae6;fill-opacity:1;stroke:none;stroke-width:0.434787;stroke-linecap:round;stroke-miterlimit:4.2;stroke-dasharray:none;paint-order:fill markers stroke"
         id="path41476" />
      <path
         style="font-variation-settings:normal;fill:#2a638e;fill-opacity:1;stroke:none;stroke-width:0.449945;stroke-linecap:round;stroke-linejoin:miter;stroke-miterlimit:4.2;stroke-dasharray:none;stroke-dashoffset:0;stroke-opacity:1;paint-order:fill markers stroke;stop-color:#000000"
         d="m 52.188674,81.096306 -0.475727,-0.761741 0.422315,-0.702903 0.970031,-0.346065 -0.80754,0.137003 -0.853533,0.179489 -0.588178,-0.723283 -0.976005,-0.03209 0.889262,0.203434 0.566016,0.745947 0.414731,0.01445 -0.417189,0.551841 0.478194,0.664572 z"
         id="path41478" />
      <path
         style="font-variation-settings:normal;fill:#2a638e;fill-opacity:1;stroke:none;stroke-width:0.505231;stroke-linecap:round;stroke-linejoin:miter;stroke-miterlimit:4.2;stroke-dasharray:none;stroke-dashoffset:0;stroke-opacity:1;paint-order:fill markers stroke;stop-color:#000000"
         d="m 56.504864,79.275334 -0.820241,0.132379 -0.59819,0.130962 0.492522,-0.322785 -0.363342,-0.595858 -0.282237,-0.549248 -0.627444,0.159012 0.508141,-0.334705 -0.132234,-0.409961 -0.544286,-0.458733 0.674719,0.334053 0.193672,0.552314 0.23213,0.465936 0.546272,0.718244 0.761037,-0.134045 z"
         id="path41480"
         sodipodi:nodetypes="cccccccccccccccc" />
      <path
         d="m 84.845514,68.18381 -1.604558,-0.357199 -0.966312,4.340732 -2.96418,-0.659872 2.737273,-12.295918 4.838969,1.077228 c 1.458159,0.32461 2.526168,0.902134 3.204018,1.73257 0.677851,0.830433 0.885178,1.836801 0.621981,3.019101 -0.190521,0.85576 -0.522962,1.526287 -0.997339,2.011582 -0.46876,0.486548 -1.110764,0.822259 -1.926004,1.007133 l 1.463729,5.528732 -0.02814,0.126671 -3.175313,-0.706877 -0.543149,-1.276715 z m -1.095077,-2.645792 1.874789,0.417357 c 0.563009,0.125334 1.017844,0.07295 1.364517,-0.157141 0.353552,-0.23447 0.589228,-0.616316 0.707047,-1.145535 0.117819,-0.529222 0.06639,-0.974986 -0.154329,-1.337294 -0.219459,-0.367941 -0.607865,-0.613951 -1.165237,-0.738031 l -1.874798,-0.417357 z"
         style="font-weight:900;font-size:11.2889px;font-family:Roboto;-inkscape-font-specification:'Roboto Heavy';font-variant-ligatures:no-common-ligatures;font-variation-settings:normal;fill:#2a638e;fill-opacity:1;stroke:none;stroke-width:0.449945;stroke-linecap:round;stroke-linejoin:miter;stroke-miterlimit:4.2;stroke-dasharray:none;stroke-dashoffset:0;stroke-opacity:1;paint-order:fill markers stroke;stop-color:#000000"
         id="path41482"
         sodipodi:nodetypes="cccccsssccccccccscscscc" />
      <path
         d="m 87.491377,80.376357 q 0.123469,-0.460795 -0.136716,-0.806313 -0.254206,-0.343917 -1.000317,-0.838881 -0.746087,-0.494957 -1.19778,-0.89179 -1.470669,-1.285614 -1.081021,-2.739812 0.194026,-0.724108 0.760442,-1.162425 0.574015,-0.442697 1.427776,-0.541046 0.855367,-0.104333 1.818849,0.153831 0.939546,0.251749 1.591802,0.785705 0.658257,0.535565 0.90441,1.268577 0.247764,0.727032 0.03453,1.522951 l -2.094528,-0.561226 q 0.142709,-0.532608 -0.107856,-0.914034 -0.244587,-0.379823 -0.801124,-0.528947 -0.562531,-0.15073 -0.959022,0.01242 -0.388901,0.15877 -0.491526,0.541768 -0.0898,0.335124 0.195496,0.706612 0.286913,0.36551 1.111996,0.900875 0.826649,0.529374 1.317341,1.02004 1.194233,1.192299 0.810996,2.622559 -0.306271,1.143011 -1.342795,1.564402 -1.036531,0.42139 -2.538608,0.01891 -1.059225,-0.283819 -1.819958,-0.891738 -0.753142,-0.612301 -1.013602,-1.387635 -0.252902,-0.779718 -0.02202,-1.641464 l 2.106493,0.564432 q -0.187615,0.700168 0.08165,1.131505 0.276868,0.426956 1.090735,0.645031 0.520645,0.139507 0.879176,-0.0017 0.366137,-0.145624 0.475181,-0.552561 z"
         style="font-weight:900;font-size:11.2889px;font-family:Roboto;-inkscape-font-specification:'Roboto Heavy';font-variant-ligatures:no-common-ligatures;font-variation-settings:normal;fill:#2a638e;fill-opacity:1;stroke:none;stroke-width:0.449945;stroke-linecap:round;stroke-linejoin:miter;stroke-miterlimit:4.2;stroke-dasharray:none;stroke-dashoffset:0;stroke-opacity:1;paint-order:fill markers stroke;stop-color:#000000"
         id="path41484" />
      <path
         d="M 88.397423,79.886545 Q 88.520892,79.42575 88.260707,79.080232 88.0065,78.736315 87.26039,78.241351 86.514303,77.746394 86.062609,77.34956 q -1.470668,-1.285613 -1.08102,-2.739811 0.194025,-0.724109 0.760442,-1.162426 0.574014,-0.442696 1.427776,-0.541045 0.855367,-0.104333 1.818849,0.153831 0.939546,0.251749 1.591802,0.785705 0.658257,0.535565 0.904409,1.268577 0.247765,0.727032 0.03453,1.522951 l -2.094529,-0.561226 q 0.14271,-0.532608 -0.107855,-0.914034 -0.244588,-0.379823 -0.801124,-0.528947 -0.562531,-0.15073 -0.959022,0.01242 -0.388901,0.158771 -0.491526,0.541769 -0.0898,0.335124 0.195496,0.706612 0.286913,0.365509 1.111996,0.900875 0.826649,0.529374 1.317341,1.02004 1.194233,1.192299 0.810995,2.622559 -0.30627,1.143011 -1.342794,1.564402 -1.036532,0.42139 -2.538608,0.01891 -1.059225,-0.283819 -1.819958,-0.891738 -0.753142,-0.612301 -1.013603,-1.387636 -0.252901,-0.779717 -0.02202,-1.641463 l 2.106493,0.564432 q -0.187615,0.700168 0.08165,1.131505 0.276868,0.426956 1.090735,0.645031 0.520645,0.139507 0.879176,-0.0017 0.366137,-0.145624 0.475181,-0.552561 z"
         style="font-weight:900;font-size:11.2889px;font-family:Roboto;-inkscape-font-specification:'Roboto Heavy';font-variant-ligatures:no-common-ligatures;fill:#7cbae6;fill-opacity:1;stroke:none;stroke-width:0.449585;stroke-linecap:round;stroke-miterlimit:4.2;stroke-dasharray:none;paint-order:fill markers stroke"
         id="path41486" />
      <path
         style="font-variation-settings:normal;opacity:0.2;fill:#000000;fill-opacity:1;stroke:none;stroke-width:0.449944;stroke-linecap:round;stroke-linejoin:miter;stroke-miterlimit:4.2;stroke-dasharray:none;stroke-dashoffset:0;stroke-opacity:1;paint-order:fill markers stroke;stop-color:#000000"
         d="m 81.093862,73.13875 1.59778,0.03592 -0.02761,1.541734 -0.644689,-0.02745 -0.101894,6.620198 -1.732293,-0.117125 0.479562,-6.938231 z"
         id="path41488" />
      <path
         id="path41492"
         style="font-variation-settings:normal;fill:#000000;fill-opacity:1;stroke-width:0.086136;stroke-linecap:round;stroke-linejoin:miter;stroke-miterlimit:4.2;stroke-dasharray:none;stroke-dashoffset:0;stroke-opacity:1;paint-order:fill markers stroke;stop-color:#000000"
         d="m 77.321644,55.888304 c -0.157278,0.14494 -0.273574,0.350772 -0.259621,0.569963 0.189057,0.138791 0.429859,0.166024 0.654454,0.204327 -0.09832,-0.288311 -0.196641,-0.576621 -0.294966,-0.864931 -0.03324,0.03021 -0.06658,0.06043 -0.09987,0.09065 z m 16.336914,0.975543 c 0.320279,1.695802 0.08711,3.44518 -0.372728,5.092641 -0.547456,2.118071 -1.22653,4.225914 -1.36338,6.423241 -0.07998,1.491566 0.355219,2.949992 0.878499,4.32965 0.579371,1.57064 1.303233,3.116841 1.513923,4.794002 0.123436,1.150146 -0.251624,2.325288 -0.958083,3.233533 -0.888617,1.211065 -2.150155,2.120303 -3.528201,2.698595 -1.219091,0.489862 -2.565493,0.642341 -3.865353,0.459326 -1.231994,-0.143807 -2.457695,-0.541367 -3.458138,-1.290465 -0.108876,-0.123514 -0.285426,-0.391537 -0.465502,-0.21969 -0.12203,0.198944 0.07333,0.396278 0.153626,0.570987 0.431651,0.825078 1.051426,1.562305 1.844204,2.060599 0.87636,0.572953 1.911607,0.840168 2.941776,0.959258 1.466822,0.181599 3.006068,-0.02582 4.313463,-0.738691 1.460491,-0.75436 2.739094,-1.903273 3.546287,-3.343779 0.609618,-1.114166 0.866744,-2.425781 0.671818,-3.684621 -0.201564,-1.729493 -0.864604,-3.354284 -1.424038,-4.989515 -0.537396,-1.52359 -1.085296,-3.082469 -1.128918,-4.714246 -0.03401,-1.805218 0.477702,-3.554286 0.853022,-5.303292 0.335812,-1.501505 0.609329,-3.055434 0.38695,-4.594572 -0.09821,-0.709781 -0.299485,-1.406223 -0.608365,-2.053291 0.02303,0.103443 0.04606,0.206887 0.06909,0.31033 z m -9.336035,0.765072 c -1.678302,0.08025 -3.274062,0.666597 -4.824437,1.26948 -0.193519,0.07496 -0.461023,0.138641 -0.508027,0.375886 -0.04837,0.284785 0.14558,0.529602 0.230213,0.787626 0.15404,0.366608 0.331206,0.725669 0.560985,1.051312 0.508055,0.0946 0.954382,-0.230758 1.418527,-0.375255 1.557708,-0.561701 3.211602,-0.985224 4.880172,-0.849546 1.31678,0.04967 2.5526,0.801322 3.29133,1.878042 0.04856,0.08708 0.203694,0.31441 0.134672,0.07649 -0.190069,-1.401735 -0.957187,-2.745623 -2.154058,-3.522611 -0.892423,-0.578643 -1.985978,-0.7279 -3.029377,-0.69143 z"
         sodipodi:nodetypes="cccccsscccssccsccccs" />
      <path
         style="font-variation-settings:normal;fill:#2a638e;fill-opacity:1;stroke:none;stroke-width:0.449945;stroke-linecap:round;stroke-linejoin:miter;stroke-miterlimit:4.2;stroke-dasharray:none;stroke-dashoffset:0;stroke-opacity:1;paint-order:fill markers stroke;stop-color:#000000"
         d="m 90.928658,80.555952 -0.875011,-0.202296 -0.198442,-0.795631 0.441201,-0.930614 -0.474137,0.667886 -0.476632,0.730462 -0.927335,-0.09554 -0.712819,0.667462 0.772668,-0.48496 0.927691,0.127241 0.303474,-0.283048 0.0952,0.685206 0.808041,0.131783 z"
         id="path41596-3" />
      <path
         id="path41494"
         style="font-variation-settings:normal;fill:#333333;fill-opacity:1;stroke-width:0.086136;stroke-linecap:round;stroke-linejoin:miter;stroke-miterlimit:4.2;stroke-dasharray:none;stroke-dashoffset:0;stroke-opacity:1;paint-order:fill markers stroke;stop-color:#000000"
         d="m 90.764181,66.13228 c -0.357118,0.393193 -0.335986,0.955928 -0.36871,1.451793 -0.106246,2.423531 0.379916,4.815049 0.612335,7.217075 0.15591,1.502132 0.183777,3.052249 -0.260989,4.511294 -0.14427,0.507024 -0.339523,1.020591 -0.709302,1.408438 -0.431623,0.309468 -0.995836,0.241853 -1.487125,0.152094 -0.894129,-0.191929 -1.608133,-0.835995 -2.151147,-1.541722 -0.830436,-1.03756 -1.503362,-2.18779 -2.287188,-3.259182 -0.331833,-0.336168 -0.938686,-0.198376 -1.175238,0.183919 -0.816319,1.031652 -1.161045,2.355169 -1.250823,3.647859 -0.08229,1.438936 0.278604,2.942615 1.1842,4.08487 0.871359,1.07805 2.202863,1.699019 3.553707,1.908408 1.517112,0.270626 3.140701,0.177485 4.541632,-0.505415 1.630575,-0.767801 3.063585,-2.010655 3.924903,-3.606445 0.597872,-1.073126 0.781234,-2.35011 0.584931,-3.556935 -0.138285,-0.856554 -0.429127,-1.680232 -0.74033,-2.487256 -0.52432,-1.31379 -1.168946,-2.574857 -1.734893,-3.870577 -0.678294,-1.474755 -1.255005,-2.996307 -1.713454,-4.5536 -0.11938,-0.352368 -0.23875,-0.704738 -0.35813,-1.057106 -0.04779,-0.04717 -0.08162,-0.143121 -0.164379,-0.127512 z"
         sodipodi:nodetypes="scscssss" />
      <path
         id="path41496"
         style="font-variation-settings:normal;fill:#333333;fill-opacity:1;stroke-width:0.086136;stroke-linecap:round;stroke-linejoin:miter;stroke-miterlimit:4.2;stroke-dasharray:none;stroke-dashoffset:0;stroke-opacity:1;paint-order:fill markers stroke;stop-color:#000000"
         d="m 90.055958,66.574731 c -0.15933,0.0939 -0.225096,0.290139 -0.288828,0.454741 -0.166682,0.611783 -0.14636,1.254867 -0.139798,1.883492 0.0634,1.937042 0.527192,3.827545 0.831669,5.73404 0.251295,1.469679 0.45578,2.988534 0.155466,4.46716 -0.132032,0.590982 -0.38248,1.191021 -0.854805,1.589487 -0.424791,0.305344 -1.029986,0.260864 -1.464297,-9.64e-4 -0.44202,-0.303879 -0.839532,-0.669168 -1.225114,-1.040942 -0.98568,-0.977672 -1.799088,-2.108036 -2.646647,-3.20273 -0.175403,-0.258492 -0.390101,-0.575548 -0.739722,-0.575182 -0.363613,-0.0214 -0.700996,0.216446 -0.864287,0.531421 -0.845631,1.15528 -1.159261,2.618777 -1.144297,4.030491 0.02544,1.39118 0.489708,2.810959 1.454642,3.835414 0.999575,1.012458 2.397625,1.555318 3.798133,1.68946 1.538465,0.208281 3.161717,-0.03238 4.512561,-0.820404 1.653335,-0.893676 3.05046,-2.314582 3.782204,-4.05786 0.492792,-1.3189 0.390949,-2.805302 -0.108,-4.106582 -0.642409,-1.927873 -1.719409,-3.664618 -2.584071,-5.49372 -0.753473,-1.527331 -1.38033,-3.11311 -2.108267,-4.651966 -0.07844,-0.122527 -0.19959,-0.296022 -0.366542,-0.265116 z"
         sodipodi:nodetypes="sccscs" />
      <path
         id="path41498"
         style="font-variation-settings:normal;fill:#000000;fill-opacity:1;stroke-width:0.086136;stroke-linecap:round;stroke-linejoin:miter;stroke-miterlimit:4.2;stroke-dasharray:none;stroke-dashoffset:0;stroke-opacity:1;paint-order:fill markers stroke;stop-color:#000000"
         d="m 93.483415,72.010123 c -0.105803,0.596796 0.147652,1.171914 0.222773,1.756365 0.310991,1.549665 0.710439,3.114689 0.592996,4.70834 -0.132571,1.237256 -0.842836,2.340282 -1.729883,3.181673 -1.299397,1.245109 -2.990264,2.127183 -4.795819,2.296246 -1.116777,0.07439 -2.24504,-0.05521 -3.323196,-0.350729 -0.89993,-0.275954 -1.750494,-0.749262 -2.407617,-1.429338 -0.154031,-0.224836 -0.240157,0.188373 -0.07786,0.255516 0.536481,1.581769 1.906982,2.832871 3.51367,3.269167 0.579101,0.151593 1.171711,0.255054 1.767078,0.317784 1.12145,0.113348 2.280086,0.0029 3.324574,-0.438503 1.658144,-0.662172 3.113643,-1.839116 4.086999,-3.33791 0.647747,-1.042696 1.016852,-2.28211 0.908958,-3.514614 -0.08509,-2.079232 -0.758079,-4.085737 -1.626557,-5.960147 -0.139008,-0.239608 -0.200379,-0.530064 -0.4039,-0.727734 -0.02033,0.0112 -0.03016,-0.04824 -0.05223,-0.02611 z"
         sodipodi:nodetypes="sscccsss" />
      <path
         id="path41500"
         style="font-weight:900;font-size:11.2889px;font-family:Roboto;-inkscape-font-specification:'Roboto Heavy';font-variant-ligatures:no-common-ligatures;font-variation-settings:normal;fill:#2a638e;fill-opacity:1;stroke:none;stroke-width:0.449945;stroke-linecap:round;stroke-linejoin:miter;stroke-miterlimit:4.2;stroke-dasharray:none;stroke-dashoffset:0;stroke-opacity:1;paint-order:fill markers stroke;stop-color:#000000"
         d="m 87.995024,73.537313 c -0.572874,-0.0087 -0.742775,1.489889 -0.385337,1.585665 0.371022,0.09941 0.638105,0.275611 0.801163,0.528826 0.167007,0.254283 0.20326,0.559094 0.108123,0.914166 l 2.094576,0.561343 0.906038,-0.489804 -0.808077,-0.216652 c 0.0016,-0.279082 -0.04208,-0.55129 -0.132515,-0.816611 -0.164104,-0.488674 -0.465569,-0.911571 -0.90441,-1.268613 -0.434837,-0.355971 -0.965802,-0.617887 -1.592164,-0.78572 -0.03013,-0.0081 -0.05923,-0.01217 -0.0874,-0.0126 z" />
      <path
         d="m 88.988656,73.060108 c 0.626362,0.167832 1.156965,0.429734 1.591802,0.785705 0.438841,0.357043 0.740306,0.779902 0.90441,1.268577 0.165174,0.484688 0.176689,0.992338 0.03453,1.522951 L 89.42487,76.076114 c 0.09514,-0.355071 0.05923,-0.659749 -0.107856,-0.914033 -0.163058,-0.253215 -0.430102,-0.429531 -0.801124,-0.528947 -0.375018,-0.100486 -0.694692,-0.09635 -0.959022,0.01242 -0.02006,0.0082 -0.337246,0.174508 -0.37726,0.189361 -0.227628,0.08449 -0.407889,0.07303 -0.129014,-0.30485 0.163215,-0.221167 -0.0031,-0.82675 0.429417,-1.164005 0.38032,-0.296606 1.363364,-0.344879 1.508645,-0.305952 z"
         style="font-weight:900;font-size:11.2889px;font-family:Roboto;-inkscape-font-specification:'Roboto Heavy';font-variant-ligatures:no-common-ligatures;fill:#7cbae6;fill-opacity:1;stroke:none;stroke-width:0.449585;stroke-linecap:round;stroke-miterlimit:4.2;stroke-dasharray:none;paint-order:fill markers stroke"
         id="path41502"
         sodipodi:nodetypes="scccccscssss" />
      <path
         id="path41506"
         style="fill:#b3b3b3;stroke-width:0.455913;stroke-linecap:round;stroke-miterlimit:4.2;paint-order:fill markers stroke;stop-color:#000000"
         d="m 46.104426,54.331351 c 0.860138,5.676928 -4.654581,10.396306 -10.396301,10.396306 -5.741719,0 -10.455938,-4.654897 -10.396302,-10.396306 0.05815,-5.598916 9.687139,-15.415629 10.204562,-18.682208 1.475471,3.873966 9.756583,13.194523 10.588041,18.682208 z"
         sodipodi:nodetypes="ssscs" />
      <path
         id="path41508"
         style="fill:#b3b3b3;stroke-width:0.455913;stroke-linecap:round;stroke-miterlimit:4.2;paint-order:fill markers stroke;stop-color:#000000"
         d="m 46.104426,54.331351 c 0.860138,5.676928 -4.654581,10.396306 -10.396301,10.396306 -5.741719,0 -10.455938,-4.654897 -10.396302,-10.396306 0.05815,-5.598916 9.687139,-15.415629 10.204562,-18.682208 1.475471,3.873966 9.756583,13.194523 10.588041,18.682208 z"
         sodipodi:nodetypes="ssscs" />
      <path
         id="path41510"
         style="opacity:0.2;fill:#000000;stroke-width:0.455913;stroke-linecap:round;stroke-miterlimit:4.2;paint-order:fill markers stroke;stop-color:#000000"
         d="m 35.516231,35.649198 c -0.09885,0.624045 0.325563,1.570254 -0.3081,2.597332 2.998661,4.494777 6.792342,10.062385 7.319306,14.123195 0.900425,6.938729 -4.487084,11.006271 -10.297822,10.864666 -0.79448,-0.01937 -1.569354,-0.09027 -2.314767,-0.25916 1.659681,1.106683 3.655314,1.752273 5.793397,1.752273 5.741714,0 11.256563,-4.719505 10.396426,-10.396427 C 45.273214,48.843397 36.9917,39.523159 35.516231,35.649198 Z"
         sodipodi:nodetypes="ccsscssc" />
      <path
         id="path41512"
         style="fill:#b3b3b3;stroke-width:0.212389;stroke-linecap:round;stroke-miterlimit:4.2;paint-order:fill markers stroke;stop-color:#000000"
         d="m 40.55131,31.218618 c -0.101896,1.664017 -2.947509,5.437578 -2.951533,7.27485 -0.0039,1.730299 -3.617642,1.780743 -3.875847,0.06982 -0.286076,-1.895596 -2.730434,-5.723622 -2.858989,-7.344664 h 4.843184 z"
         sodipodi:nodetypes="cssccc" />
      <path
         id="path41514"
         style="font-variation-settings:normal;opacity:0.2;fill:#000000;fill-opacity:1;stroke-width:0.455913;stroke-linecap:round;stroke-linejoin:miter;stroke-miterlimit:4.2;stroke-dasharray:none;stroke-dashoffset:0;stroke-opacity:1;paint-order:fill markers stroke;stop-color:#000000"
         d="m 37.498442,31.218902 c -0.101897,1.664015 -1.92871,5.437304 -1.932735,7.274574 -0.0013,0.552204 -0.370392,0.93293 -0.880554,1.140301 1.151499,0.456261 2.911664,0.06712 2.914368,-1.140301 0.004,-1.83727 2.850168,-5.610559 2.952065,-7.274574 z"
         sodipodi:nodetypes="cccccc" />
      <text
         xml:space="preserve"
         style="font-style:normal;font-variant:normal;font-weight:900;font-stretch:normal;font-size:16.8411px;line-height:normal;font-family:Roboto;-inkscape-font-specification:'Roboto Heavy';font-variant-ligatures:no-common-ligatures;text-decoration-color:#000000;fill:#000000;fill-opacity:1;stroke:none;stroke-width:0.596732;stroke-linecap:round;stroke-linejoin:miter;stroke-miterlimit:4.2;stroke-dasharray:none;stroke-dashoffset:0;stroke-opacity:1;paint-order:fill markers stroke;stop-color:#000000"
         x="28.953423"
         y="60.423618"
         id="text41518"
         transform="rotate(-2.0860987)"><tspan
           sodipodi:role="line"
           id="tspan41516"
           style="fill:#000000;stroke-width:0.596732"
           x="28.953423"
           y="60.423618">$</tspan></text>
      <path
         style="font-variation-settings:normal;fill:#8f8f8f;fill-opacity:1;stroke:none;stroke-width:0.322499;stroke-linecap:round;stroke-linejoin:miter;stroke-miterlimit:4.2;stroke-dasharray:none;stroke-dashoffset:0;stroke-opacity:1;paint-order:fill markers stroke;stop-color:#000000"
         d="m 33.369772,38.361792 -0.133092,1.55821 -0.946481,1.337863 c 0,0 2.952318,-0.971521 4.291724,-0.133478 1.339397,0.838042 0.991356,0.828604 0.991356,0.828604 l -1.077067,-2.61255 -0.470736,-1.518532 -2.16378,-0.168725 z"
         id="path41522" />
      <path
         id="path41524"
         style="font-variation-settings:normal;fill:#333333;fill-opacity:1;stroke-width:0.086136;stroke-linecap:round;stroke-linejoin:miter;stroke-miterlimit:4.2;stroke-dasharray:none;stroke-dashoffset:0;stroke-opacity:1;paint-order:fill markers stroke;stop-color:#000000"
         d="m 29.579001,36.034704 c 7.219712,-8.256991 13.221565,3.247871 10.582579,3.608843 -0.845727,0.11568 -5.628547,-2.042061 -6.9143,0.05944 l -2.568818,3.821031 c -0.1064,0.158256 -3.037008,-4.338686 -1.099461,-7.489318 z"
         sodipodi:nodetypes="csccc" />
      <path
         id="path41526"
         style="font-variation-settings:normal;fill:#000000;fill-opacity:1;stroke-width:0.086136;stroke-linecap:round;stroke-linejoin:miter;stroke-miterlimit:4.2;stroke-dasharray:none;stroke-dashoffset:0;stroke-opacity:1;paint-order:fill markers stroke;stop-color:#000000"
         d="m 35.060225,33.061803 c 2.816056,1.686107 4.178328,5.619373 2.652669,5.82806 -0.845727,0.115679 -5.628422,-2.042154 -6.914166,0.05935 l -1.421446,2.114083 c 0.50369,1.475621 1.248452,2.539168 1.301132,2.460809 l 2.568923,-3.821285 c 1.285744,-2.101499 6.068448,0.05633 6.914166,-0.05935 1.919769,-0.262593 -0.733199,-6.422272 -5.101278,-6.581667 z" />
      <path
         style="font-variation-settings:normal;fill:#ac5c51;fill-opacity:1;stroke:none;stroke-width:0.086136;stroke-linecap:round;stroke-linejoin:miter;stroke-miterlimit:4.2;stroke-dasharray:none;stroke-dashoffset:0;stroke-opacity:1;paint-order:fill markers stroke;stop-color:#000000"
         d="m 79.275987,49.787252 c 0,0 -3.637829,1.796138 -6.394287,2.48963 -0.955751,0.240456 -2.881196,0.593992 -4.22145,0.66612 -0.84487,0.04546 1.044026,1.078704 2.393029,0.713629 2.04204,-0.552624 5.62424,-1.800256 8.222708,-3.869379 z"
         id="path41528"
         sodipodi:nodetypes="csssc" />
      <path
         style="font-variation-settings:normal;fill:none;fill-opacity:1;stroke:#000000;stroke-width:0.322498;stroke-linecap:round;stroke-linejoin:miter;stroke-miterlimit:4.2;stroke-dasharray:none;stroke-dashoffset:0;stroke-opacity:1;paint-order:fill markers stroke;stop-color:#000000"
         d="m 83.954732,47.806581 c 0,0 9.222517,-1.574005 11.715268,-4.589495"
         id="path41530" />
      <path
         style="font-variation-settings:normal;fill:none;fill-opacity:1;stroke:#000000;stroke-width:0.322498;stroke-linecap:round;stroke-linejoin:miter;stroke-miterlimit:4.2;stroke-dasharray:none;stroke-dashoffset:0;stroke-opacity:1;paint-order:fill markers stroke;stop-color:#000000"
         d="m 84.018492,48.812865 c 0,0 9.330696,-0.685848 12.100095,-3.449434"
         id="path41532" />
      <path
         style="font-variation-settings:normal;opacity:0.2;fill:#000000;fill-opacity:1;stroke:none;stroke-width:0.449945;stroke-linecap:round;stroke-linejoin:miter;stroke-miterlimit:4.2;stroke-dasharray:none;stroke-dashoffset:0;stroke-opacity:1;paint-order:fill markers stroke;stop-color:#000000"
         d="m 64.220586,65.304766 c 0.624206,-2.647812 2.371242,-5.015114 5.54826,-5.190989 1.052101,0.06855 1.031557,-0.394918 1.031557,-0.394918 l -0.892163,-0.577863 -1.735019,-0.22692 -1.559558,0.692543 -1.545471,1.834904 -1.388106,2.428718 0.0953,0.827921 z"
         id="path41536"
         sodipodi:nodetypes="cccccccccc" />
      <path
         d="m 84.323795,66.983281 -1.604568,-0.357199 -0.966311,4.340732 -2.964171,-0.659871 2.737263,-12.295919 4.838979,1.077229 q 2.187243,0.486914 3.204019,1.732569 1.016765,1.24565 0.621971,3.019101 -0.285773,1.28364 -0.99733,2.011583 -0.703144,0.729821 -1.926013,1.007132 l 1.463738,5.528732 -0.02814,0.126671 -3.175313,-0.706876 z m -1.095077,-2.645792 1.874789,0.417358 q 0.844513,0.188 1.364507,-0.157141 0.530334,-0.351707 0.707047,-1.145536 0.176733,-0.793831 -0.154319,-1.337293 -0.329183,-0.551912 -1.165246,-0.738033 l -1.874798,-0.417356 z"
         style="font-weight:900;font-size:11.2889px;font-family:Roboto;-inkscape-font-specification:'Roboto Heavy';font-variant-ligatures:no-common-ligatures;fill:#7cbae6;fill-opacity:1;stroke:none;stroke-width:0.443232;stroke-linecap:round;stroke-miterlimit:4.2;stroke-dasharray:none;paint-order:fill markers stroke"
         id="path41538" />
      <path
         style="font-variation-settings:normal;opacity:0.2;fill:#000000;fill-opacity:1;stroke:none;stroke-width:0.449945;stroke-linecap:round;stroke-linejoin:miter;stroke-miterlimit:4.2;stroke-dasharray:none;stroke-dashoffset:0;stroke-opacity:1;paint-order:fill markers stroke;stop-color:#000000"
         d="m 81.752916,70.966813 0.483156,-2.170365 -0.948784,-9.713036 -2.205244,9.77799 1.188786,1.775476 z"
         id="path41540"
         sodipodi:nodetypes="cccccc" />
      <path
         style="font-variation-settings:normal;fill:#2a638e;fill-opacity:1;stroke:none;stroke-width:0.505231;stroke-linecap:round;stroke-linejoin:miter;stroke-miterlimit:4.2;stroke-dasharray:none;stroke-dashoffset:0;stroke-opacity:1;paint-order:fill markers stroke;stop-color:#000000"
         d="m 80.015526,61.853361 0.82025,0.132357 0.728314,0.584736 -0.622665,-0.776552 0.667443,-0.320211 0.907812,0.156092 0.627454,0.158996 -0.508142,-0.334705 0.132234,-0.409961 0.544277,-0.458737 -0.674728,0.334059 -0.193673,0.552304 -0.992281,-0.239407 -0.715786,0.442617 -0.761028,-0.134049 z"
         id="path41542"
         sodipodi:nodetypes="cccccccccccccccc" />
      <path
         style="font-variation-settings:normal;fill:#2a638e;fill-opacity:1;stroke:none;stroke-width:0.505231;stroke-linecap:round;stroke-linejoin:miter;stroke-miterlimit:4.2;stroke-dasharray:none;stroke-dashoffset:0;stroke-opacity:1;paint-order:fill markers stroke;stop-color:#000000"
         d="m 77.646134,67.142636 -0.82024,0.132358 -0.728323,0.584736 0.622665,-0.776551 -0.667444,-0.320212 -0.907812,0.156091 -0.627454,0.158996 0.508152,-0.334704 -0.132244,-0.409961 -0.544267,-0.458738 0.674728,0.33406 0.193663,0.552304 0.992281,-0.239407 0.715787,0.442617 0.761037,-0.134049 z"
         id="path41544"
         sodipodi:nodetypes="cccccccccccccccc" />
      <path
         style="font-variation-settings:normal;fill:#2a638e;fill-opacity:1;stroke:none;stroke-width:0.585553;stroke-linecap:round;stroke-linejoin:miter;stroke-miterlimit:4.2;stroke-dasharray:none;stroke-dashoffset:0;stroke-opacity:1;paint-order:fill markers stroke;stop-color:#000000"
         d="m 65.51981,61.227014 0.950653,0.153399 0.844099,0.677697 -0.721655,-0.900007 0.773554,-0.371119 1.052139,0.180907 0.727206,0.184274 -0.58893,-0.387917 0.15326,-0.475136 0.630797,-0.531669 -0.781995,0.387168 -0.22445,0.64011 -1.15004,-0.277468 -0.829578,0.512984 -0.882026,-0.15536 z"
         id="path41546"
         sodipodi:nodetypes="cccccccccccccccc" />
      <path
         style="font-variation-settings:normal;fill:#2a638e;fill-opacity:1;stroke:none;stroke-width:0.505231;stroke-linecap:round;stroke-linejoin:miter;stroke-miterlimit:4.2;stroke-dasharray:none;stroke-dashoffset:0;stroke-opacity:1;paint-order:fill markers stroke;stop-color:#000000"
         d="m 76.615888,70.317502 -0.787835,0.263891 -0.916609,-0.179407 0.912167,0.398351 -0.442251,0.593653 -0.876399,0.283558 -0.629497,0.15073 0.605484,0.06029 0.07343,0.424467 -0.268833,0.659094 0.44228,-0.6093 -0.08509,-0.579057 0.98991,-0.249025 0.428202,-0.724508 0.736176,-0.234882 z"
         id="path41548"
         sodipodi:nodetypes="cccccccccccccccc" />
      <path
         style="font-variation-settings:normal;fill:#2a638e;fill-opacity:1;stroke:none;stroke-width:0.449945;stroke-linecap:round;stroke-linejoin:miter;stroke-miterlimit:4.2;stroke-dasharray:none;stroke-dashoffset:0;stroke-opacity:1;paint-order:fill markers stroke;stop-color:#000000"
         d="m 81.597738,65.988497 -0.04327,-0.902615 -0.642862,-0.392548 -1.013085,0.185317 0.767841,-0.285126 0.828932,-0.271328 0.147728,-0.920468 0.410675,-0.30417 -0.249889,0.409213 -0.117202,0.929022 -0.351943,0.219871 0.23689,0.236411 0.203838,0.07267 0.312899,0.421101 -0.33377,-0.202931 -0.03951,0.660389 0.444351,0.568315 z"
         id="path41550"
         sodipodi:nodetypes="cccccccccccccccccc" />
      <path
         style="font-variation-settings:normal;fill:#2a638e;fill-opacity:1;stroke:none;stroke-width:0.525921;stroke-linecap:round;stroke-linejoin:miter;stroke-miterlimit:4.2;stroke-dasharray:none;stroke-dashoffset:0;stroke-opacity:1;paint-order:fill markers stroke;stop-color:#000000"
         d="m 60.206319,63.025339 -0.716115,-0.767545 -0.92136,0.264161 -0.684171,0.990494 0.398976,-0.870288 0.460868,-0.909369 -0.63868,-0.882881 0.259063,-1.111646 -0.03932,1.065561 0.67098,0.864706 -0.109156,0.472619 0.749252,-0.304073 0.605658,0.740941 z"
         id="path41552" />
      <path
         id="path41554"
         style="font-variation-settings:normal;fill:#333333;fill-opacity:1;stroke-width:0.086136;stroke-linecap:round;stroke-linejoin:miter;stroke-miterlimit:4.2;stroke-dasharray:none;stroke-dashoffset:0;stroke-opacity:1;paint-order:fill markers stroke;stop-color:#000000"
         d="m 58.651781,63.607805 c -0.578253,6.441237 -0.08836,11.012396 0.612971,15.905836 0.455347,3.17726 1.329722,6.77905 4.345493,7.41298 6.212264,0.245302 6.707494,-5.06313 6.047836,-5.764598 -0.902907,-0.570428 -1.079861,-0.652661 -1.810767,-0.648932 -1.389503,0.0067 -2.642426,0.75143 -3.044602,0.396981 -0.714052,-0.657855 -1.930677,-1.645482 -1.103701,-15.408957 -1.93e-4,-3.701481 2.935138,-6.008665 6.636622,-6.008479 3.70132,3.9e-5 6.246548,3.006057 6.246298,7.938922 0.38537,4.589758 0.278777,8.959073 -0.42721,13.163824 -0.28109,0.986344 -0.812184,1.018345 -1.024859,1.040065 -1.439957,0.147064 0.345082,-4.119357 -1.337807,-3.634929 -4.273579,1.230173 -4.611743,10.069793 2.897307,8.590396 2.545383,-1.436112 3.998474,-4.045844 4.153526,-7.077273 0.258031,-5.044873 1.147631,-10.847369 0,-17.225259 -1.064079,-8.152178 -6.523313,-12.868748 -10.755574,-8.008827 -5.22482,-6.806826 -11.200426,3.296738 -11.435533,9.32825 z"
         sodipodi:nodetypes="csccscccccsscsccc" />
      <path
         id="path41556"
         style="font-variation-settings:normal;fill:#000000;fill-opacity:1;stroke-width:0.086136;stroke-linecap:round;stroke-linejoin:miter;stroke-miterlimit:4.2;stroke-dasharray:none;stroke-dashoffset:0;stroke-opacity:1;paint-order:fill markers stroke;stop-color:#000000"
         d="m 76.602673,53.570436 c 1.565648,1.537132 2.418058,4.687702 2.753735,7.526051 1.147632,6.377883 0.258032,12.180392 0,17.225255 -0.155052,3.031429 -1.607998,5.64146 -4.153381,7.077572 -1.530159,0.30146 -2.734526,0.17415 -3.646087,-0.229663 0.882556,1.212038 2.539361,1.932354 5.132576,1.421446 2.545373,-1.436112 3.998329,-4.046142 4.153372,-7.077562 0.25804,-5.044867 1.14764,-10.847375 0,-17.225259 -0.434215,-3.671619 -1.914262,-7.198119 -4.240215,-8.71784 z m -6.616363,1.728476 c -0.705746,3.346741 -7.774057,5.308887 -7.773865,9.010365 -1.222936,13.350119 0.588872,18.684404 3.726692,16.878561 -0.894649,-0.166201 -1.651023,-0.387664 -1.873709,-1.262974 -0.783624,-3.08018 -0.719584,-8.547262 -0.366513,-14.423797 -1.93e-4,-3.701479 2.93507,-6.008723 6.636544,-6.008536 1.045153,1.1e-5 1.997946,0.240002 2.827446,0.695075 -1.085074,-1.219927 -2.387449,-2.280112 -3.176614,-4.888694 z m -7.862477,30.435742 c -0.309873,-0.06514 -0.596012,-0.162847 -0.862542,-0.286968 0.590982,0.734953 1.352713,1.269324 2.349031,1.478761 6.212254,0.245302 6.088134,-4.990802 6.138376,-5.525847 -0.104059,-0.99655 -1.41263,4.579357 -7.624865,4.334054 z m 11.668309,-7.18903 c -1.058682,0.691012 -1.127386,4.931059 -0.928327,5.602289 0.183064,0.522654 1.581384,-1.676153 1.500201,-3.033087 0.06552,-2.128252 0.06957,-3.181268 -0.571874,-2.569202 z"
         sodipodi:nodetypes="ccscccsccsccsccccsccssccccc" />
      <path
         id="path41560"
         style="font-variation-settings:normal;fill:#333333;fill-opacity:1;stroke-width:0.086136;stroke-linecap:round;stroke-linejoin:miter;stroke-miterlimit:4.2;stroke-dasharray:none;stroke-dashoffset:0;stroke-opacity:1;paint-order:fill markers stroke;stop-color:#000000"
         d="m 94.172243,61.120924 c 6.639747,1.432164 24.414177,17.723758 2.18987,27.785129 -4.83285,2.47982 -7.239879,-1.385402 -17.831998,-1.385402 -4.387991,0 -8.630694,5.558109 -11.832012,6.838544 -6.007159,2.402695 -10.664751,-3.4301 -11.030346,0.379934 -0.38824,4.045979 2.806573,9.009161 9.382311,10.549761 9.953062,2.33186 27.946969,-4.93492 35.027822,-8.41367 27.6075,-15.492358 12.36157,-35.481375 -6.193535,-39.477397 0.377157,1.622425 0.323371,2.639348 0.287888,3.723101 z"
         sodipodi:nodetypes="ccssssccc" />
      <path
         style="font-variation-settings:normal;fill:#000000;fill-opacity:1;stroke-width:0.086136;stroke-linecap:round;stroke-linejoin:miter;stroke-miterlimit:4.2;stroke-dasharray:none;stroke-dashoffset:0;stroke-opacity:1;paint-order:fill markers stroke;stop-color:#000000"
         d="m 107.00003,63.555064 c 7.55382,10.338497 11.14141,18.696704 -9.448537,30.25793 -7.080841,3.478752 -25.07474,10.745506 -35.027802,8.413646 -2.391077,-0.5602 -4.332805,-1.57409 -5.820102,-2.830706 1.409929,2.598746 4.208235,4.923236 8.346306,5.892716 9.953054,2.33187 27.946961,-4.93489 35.027805,-8.41365 22.07434,-12.39471 16.20587,-23.36405 6.92233,-33.319936 z"
         id="path41562"
         sodipodi:nodetypes="ccscscc" />
      <path
         style="font-variation-settings:normal;fill:#333333;fill-opacity:1;stroke:none;stroke-width:0.322499;stroke-linecap:round;stroke-linejoin:miter;stroke-miterlimit:4.2;stroke-dasharray:none;stroke-dashoffset:0;stroke-opacity:1;paint-order:fill markers stroke;stop-color:#000000"
         d="m 94.911314,97.852672 c 0,0 -1.85408,4.952438 -3.729845,7.619568 -1.87575,2.66712 -5.96138,1.60945 -7.39375,5.47362 -2.767118,7.46492 -5.657965,-5.33586 -2.554238,-7.60111 2.735387,-1.99643 1.927137,-7.301181 1.927137,-7.301181 l 7.523559,-1.007797 z"
         id="path41564"
         sodipodi:nodetypes="csssccc" />
      <path
         style="font-variation-settings:normal;fill:#000000;fill-opacity:1;stroke:none;stroke-width:0.322499;stroke-linecap:round;stroke-linejoin:miter;stroke-miterlimit:4.2;stroke-dasharray:none;stroke-dashoffset:0;stroke-opacity:1;paint-order:fill markers stroke;stop-color:#000000"
         d="m 81.814119,101.63786 c 0,0 0.563765,-2.473778 0.733368,-4.276934 0.169602,-1.803164 0.337018,-2.501427 1.119924,-2.841041 0.782923,-0.339622 2.098446,-0.671582 2.098446,-0.671582 0,0 0.08206,0.368883 -0.625724,0.85156 -0.70778,0.482669 -1.288001,1.369451 -1.368264,1.910508 -0.08025,0.541049 0.165552,3.529039 0.165552,3.529039 l -1.009096,1.93979 z"
         id="path41566" />
      <path
         id="path41568"
         style="font-variation-settings:normal;fill:#000000;fill-opacity:1;stroke:none;stroke-width:0.322499;stroke-linecap:round;stroke-linejoin:miter;stroke-miterlimit:4.2;stroke-dasharray:none;stroke-dashoffset:0;stroke-opacity:1;paint-order:fill markers stroke;stop-color:#000000"
         d="m 92.246121,96.076857 c -0.615405,1.530457 -2.000265,4.785223 -3.398144,6.772843 -1.875742,2.66713 -5.961191,1.60929 -7.393561,5.47344 -0.41644,1.12345 -0.836143,1.78714 -1.237346,2.09756 0.63794,2.78422 2.121351,4.43573 3.570885,0.52527 1.432378,-3.86417 5.517819,-2.80633 7.393569,-5.47344 1.875765,-2.66712 3.729577,-7.619598 3.729577,-7.619598 z"
         sodipodi:nodetypes="csscsscc" />
      <path
         style="font-variation-settings:normal;fill:#000000;fill-opacity:1;stroke:none;stroke-width:0.449945;stroke-linecap:round;stroke-linejoin:miter;stroke-miterlimit:4.2;stroke-dasharray:none;stroke-dashoffset:0;stroke-opacity:1;paint-order:fill markers stroke;stop-color:#000000"
         d="m 94.060916,57.476408 c 0,0 2.178003,0.50779 2.705513,0.669668 0.527501,0.161879 7.81e-4,0.297034 7.81e-4,0.297034 0,0 -1.062228,1.209776 -0.923008,2.02974 0.139211,0.819965 0.204966,1.267496 0.204966,1.267496 l -1.793066,-0.67282 -0.262791,-2.010637 z"
         id="path41576" />
      <path
         id="path41582"
         style="font-variation-settings:normal;fill:#333333;fill-opacity:1;stroke-width:0.086136;stroke-linecap:round;stroke-linejoin:miter;stroke-miterlimit:4.2;stroke-dasharray:none;stroke-dashoffset:0;stroke-opacity:1;paint-order:fill markers stroke;stop-color:#000000"
         d="m 51.918453,86.021738 c 10.943676,0.733469 7.052461,-11.645655 4.931175,-10.034858 -0.679816,0.516218 -3.163625,5.423943 -5.558764,4.847126 0,0 -2.388182,4.553803 0.627589,5.187732 z"
         sodipodi:nodetypes="cscc" />
      <path
         id="path41584"
         style="font-variation-settings:normal;fill:#000000;fill-opacity:1;stroke-width:0.086136;stroke-linecap:round;stroke-linejoin:miter;stroke-miterlimit:4.2;stroke-dasharray:none;stroke-dashoffset:0;stroke-opacity:1;paint-order:fill markers stroke;stop-color:#000000"
         d="m 57.264003,75.842235 c -0.016,-2.24e-4 -0.0317,0.0027 -0.0476,0.0037 1.406597,2.850703 1.406048,9.443259 -6.666213,8.902239 -0.886854,-0.186417 -1.706632,-0.549673 -2.423411,-1.049518 0.94147,1.164456 2.268706,2.002889 3.791618,2.323014 10.259679,0.687621 7.480875,-10.149324 5.345559,-10.179393 z"
         sodipodi:nodetypes="sccccs" />
      <path
         id="path41448"
         style="opacity:0.5;fill:#ffffff;stroke-width:0.0792723;stroke-linecap:round;stroke-miterlimit:4.2;paint-order:fill markers stroke;stop-color:#000000"
         d="m 56.831002,51.492007 c -2.330877,-0.0177 -4.683936,0.790472 -6.434498,2.276781 -1.750562,1.486308 -2.906577,3.593897 -2.998002,6.361773 v 0.78658 c 0.54179,-3.657098 2.682068,-6.384289 5.435173,-7.798203 2.156601,-1.107571 4.643003,-1.455758 7.016143,-1.052358 -0.972065,-0.336643 -1.980322,-0.566682 -3.018816,-0.574573 z"
         sodipodi:nodetypes="ssccscs" />
      <path
         style="font-variation-settings:normal;opacity:0.5;fill:#ffffff;fill-opacity:1;stroke:none;stroke-width:0.322499;stroke-linecap:round;stroke-linejoin:miter;stroke-miterlimit:4.2;stroke-dasharray:none;stroke-dashoffset:0;stroke-opacity:1;paint-order:fill markers stroke;stop-color:#000000"
         d="m 81.426585,52.405697 c 3.143755,0.343641 5.481031,-0.09015 8.301539,1.965397 -1.053112,-2.45058 -8.674209,-3.643635 -8.301539,-1.965397 z"
         id="path41558"
         sodipodi:nodetypes="ccc" />
      <path
         style="font-variation-settings:normal;opacity:0.5;fill:#ffffff;fill-opacity:1;stroke:none;stroke-width:0.322499;stroke-linecap:round;stroke-linejoin:miter;stroke-miterlimit:4.2;stroke-dasharray:none;stroke-dashoffset:0;stroke-opacity:1;paint-order:fill markers stroke;stop-color:#000000"
         d="m 94.991546,59.652583 c 6.135344,1.557779 17.437224,7.239529 16.274924,19.940005 C 115.69482,64.467648 94.826878,57.94137 94.991546,59.652583 Z"
         id="path41574"
         sodipodi:nodetypes="ccc" />
      <path
         style="font-variation-settings:normal;opacity:0.5;fill:#ffffff;fill-opacity:1;stroke:none;stroke-width:0.322499;stroke-linecap:round;stroke-linejoin:miter;stroke-miterlimit:4.2;stroke-dasharray:none;stroke-dashoffset:0;stroke-opacity:1;paint-order:fill markers stroke;stop-color:#000000"
         d="m 69.487149,35.878737 c -6.75337,1.035 -9.225057,2.92783 -12.558111,6.133374 3.674657,-6.352522 12.721787,-7.844691 12.558111,-6.133374 z"
         id="path41578"
         sodipodi:nodetypes="ccc" />
      <path
         style="font-variation-settings:normal;opacity:0.5;fill:#ffffff;fill-opacity:1;stroke:none;stroke-width:0.322499;stroke-linecap:round;stroke-linejoin:miter;stroke-miterlimit:4.2;stroke-dasharray:none;stroke-dashoffset:0;stroke-opacity:1;paint-order:fill markers stroke;stop-color:#000000"
         d="m 61.079191,58.87245 c 0,0 0.291853,-1.908203 1.059877,-2.976425 3.352527,-4.782302 6.267516,-2.318792 5.332579,-2.206556 -1.056832,0.04167 -1.924057,0.226204 -3.21564,1.121469 -1.291573,0.895265 -2.681105,2.615472 -3.176816,4.061512 z"
         id="path41580"
         sodipodi:nodetypes="cccssc" />
      <path
         style="font-variation-settings:normal;opacity:0.5;fill:#ffffff;fill-opacity:1;stroke:none;stroke-width:0.322499;stroke-linecap:round;stroke-linejoin:miter;stroke-miterlimit:4.2;stroke-dasharray:none;stroke-dashoffset:0;stroke-opacity:1;paint-order:fill markers stroke;stop-color:#000000"
         d="m 72.369713,53.701628 c 1.710505,-0.644673 4.116331,1.007013 4.352961,1.963079 -1.373065,-0.749476 -2.401307,-0.95768 -3.314264,-1.033558 -1.701987,-0.141458 -1.770181,-0.745607 -1.038697,-0.929521 z"
         id="path41586"
         sodipodi:nodetypes="ccsc" />
      <path
         style="font-variation-settings:normal;opacity:0.5;fill:#ffffff;fill-opacity:1;stroke:none;stroke-width:0.322499;stroke-linecap:round;stroke-linejoin:miter;stroke-miterlimit:4.2;stroke-dasharray:none;stroke-dashoffset:0;stroke-opacity:1;paint-order:fill markers stroke;stop-color:#000000"
         d="m 60.186363,99.534068 c -1.749762,-0.528984 -2.654317,-3.303481 -2.260467,-4.206215 0.633785,1.430148 1.323188,2.220941 2.001587,2.836572 1.264728,1.147718 0.951299,1.668695 0.25886,1.369662 z"
         id="path44623"
         sodipodi:nodetypes="ccsc" />
      <path
         style="font-variation-settings:normal;opacity:0.5;fill:#ffffff;fill-opacity:1;stroke:none;stroke-width:0.469033;stroke-linecap:round;stroke-linejoin:miter;stroke-miterlimit:4.2;stroke-dasharray:none;stroke-dashoffset:0;stroke-opacity:1;paint-order:fill markers stroke;stop-color:#000000"
         d="m 84.794116,98.219619 c -0.26177,-2.645625 2.964142,-5.403644 4.396303,-5.376172 -1.569724,1.646783 -2.249241,3.012899 -2.6995,4.266873 -0.839397,2.337747 -1.713772,2.20612 -1.696803,1.109299 z"
         id="path44621"
         sodipodi:nodetypes="ccsc" />
      <path
         style="font-variation-settings:normal;opacity:0.5;fill:#000000;fill-opacity:1;stroke:none;stroke-width:0.927278;stroke-linecap:round;stroke-linejoin:miter;stroke-miterlimit:4.2;stroke-dasharray:none;stroke-dashoffset:0;stroke-opacity:1;paint-order:fill markers stroke;stop-color:#000000"
         d="m 80.005697,97.506637 c -3.411634,3.998153 -11.762423,3.179933 -13.68569,1.101282 3.439772,0.958073 6.788475,1.155629 9.192488,0.07911 4.481716,-2.007003 6.079597,-2.659068 4.493202,-1.180355 z"
         id="path44625"
         sodipodi:nodetypes="ccsc" />
      <path
         style="font-variation-settings:normal;opacity:0.2;fill:#000000;fill-opacity:1;stroke:none;stroke-width:0.449945;stroke-linecap:round;stroke-linejoin:miter;stroke-miterlimit:4.2;stroke-dasharray:none;stroke-dashoffset:0;stroke-opacity:1;paint-order:fill markers stroke;stop-color:#000000"
         d="m 71.080501,66.467966 0.116681,4.613702 -0.801614,0.600425 0.220875,-5.641381 z"
         id="path41588" />
      <path
         style="font-variation-settings:normal;opacity:0.2;fill:#000000;fill-opacity:1;stroke:none;stroke-width:0.449945;stroke-linecap:round;stroke-linejoin:miter;stroke-miterlimit:4.2;stroke-dasharray:none;stroke-dashoffset:0;stroke-opacity:1;paint-order:fill markers stroke;stop-color:#000000"
         d="m 75.977699,73.049779 -1.930281,-0.125017 -0.103539,1.59844 2.03382,-0.614678 z"
         id="path41590" />
      <path
         style="font-variation-settings:normal;opacity:0.5;fill:#ffffff;fill-opacity:1;stroke:none;stroke-width:0.449945;stroke-linecap:round;stroke-linejoin:miter;stroke-miterlimit:4.2;stroke-dasharray:none;stroke-dashoffset:0;stroke-opacity:1;paint-order:fill markers stroke;stop-color:#000000"
         d="m 32.357381,42.448227 c -3.22464,4.722058 -6.677003,8.532847 -4.893073,14.640141 1.612651,1.464525 1.88901,-0.06699 2.56553,-0.701309 -1.153596,-5.91215 0.216211,-8.350279 2.327543,-13.938832 z"
         id="path41592"
         sodipodi:nodetypes="cccc" />
      <path
         style="font-variation-settings:normal;fill:#2a638e;fill-opacity:1;stroke:none;stroke-width:0.525921;stroke-linecap:round;stroke-linejoin:miter;stroke-miterlimit:4.2;stroke-dasharray:none;stroke-dashoffset:0;stroke-opacity:1;paint-order:fill markers stroke;stop-color:#000000"
         d="m 49.907605,66.825062 0.716114,-0.767546 0.921361,0.264162 0.684171,0.990493 -0.398976,-0.870287 -0.460859,-0.909369 0.638671,-0.88288 -0.259063,-1.111647 0.03932,1.065562 -0.67097,0.864705 0.109146,0.472619 -0.749243,-0.304073 -0.605657,0.74094 z"
         id="path41594" />
      <path
         style="font-variation-settings:normal;fill:#2a638e;fill-opacity:1;stroke:none;stroke-width:0.449945;stroke-linecap:round;stroke-linejoin:miter;stroke-miterlimit:4.2;stroke-dasharray:none;stroke-dashoffset:0;stroke-opacity:1;paint-order:fill markers stroke;stop-color:#000000"
         d="m 90.732449,63.663133 -0.875011,-0.202296 -0.198442,-0.795631 0.441201,-0.930614 -0.474137,0.667886 -0.476632,0.730462 -0.927335,-0.09554 -0.712819,0.667462 0.772668,-0.48496 0.927691,0.127241 0.303474,-0.283048 0.0952,0.685206 0.808041,0.131783 z"
         id="path41596" />
      <path
         style="font-variation-settings:normal;fill:#2a638e;fill-opacity:1;stroke:none;stroke-width:0.505231;stroke-linecap:round;stroke-linejoin:miter;stroke-miterlimit:4.2;stroke-dasharray:none;stroke-dashoffset:0;stroke-opacity:1;paint-order:fill markers stroke;stop-color:#000000"
         d="m 49.550699,62.876654 0.82025,0.132365 0.46903,-0.787616 0.423856,0.179312 0.214679,0.610641 -0.0019,-0.608466 0.414664,-0.116675 0.683265,0.199571 -0.651601,-0.377174 -0.56722,0.144227 -0.537792,-0.27277 -0.546281,0.718238 -0.761018,-0.134018 z"
         id="path41598"
         sodipodi:nodetypes="cccccccccccccc" />
      <path
         style="font-variation-settings:normal;fill:#2a638e;fill-opacity:1;stroke:none;stroke-width:0.505231;stroke-linecap:round;stroke-linejoin:miter;stroke-miterlimit:4.2;stroke-dasharray:none;stroke-dashoffset:0;stroke-opacity:1;paint-order:fill markers stroke;stop-color:#000000"
         d="m 76.233486,77.421109 -0.820251,0.132359 -0.469029,-0.787613 -0.423856,0.179313 -0.21468,0.610642 0.0019,-0.608467 -0.414674,-0.116675 -0.683255,0.199571 0.651592,-0.377175 0.567239,0.144227 0.537772,-0.272769 0.546281,0.718237 0.761028,-0.134017 z"
         id="path41600"
         sodipodi:nodetypes="cccccccccccccc" />
      <path
         style="font-variation-settings:normal;fill:#2a638e;fill-opacity:1;stroke:none;stroke-width:0.505231;stroke-linecap:round;stroke-linejoin:miter;stroke-miterlimit:4.2;stroke-dasharray:none;stroke-dashoffset:0;stroke-opacity:1;paint-order:fill markers stroke;stop-color:#000000"
         d="m 50.553753,70.240591 0.486413,-0.673602 0.330349,-0.515598 -0.120045,0.57651 0.678274,0.164366 0.587937,0.188825 0.331226,-0.55612 -0.122656,0.595982 0.383415,0.196358 0.709234,-0.06049 -0.71332,0.240874 -0.527491,-0.253585 -0.493601,-0.165322 -0.894148,-0.121593 -0.443369,0.632896 z"
         id="path41602"
         sodipodi:nodetypes="cccccccccccccccc" />
      <path
         style="font-variation-settings:normal;fill:#1a1a1a;fill-opacity:1;stroke:none;stroke-width:0.580102;stroke-linecap:round;stroke-linejoin:miter;stroke-miterlimit:4.2;stroke-dasharray:none;stroke-dashoffset:0;stroke-opacity:1;paint-order:fill markers stroke;stop-color:#000000"
         d="m 88.85017,71.050069 -1.15908,-0.273535 -0.16656,-0.493735 -0.24106,-0.517754 0.38095,-0.536344 0.0206,-0.834708 1.05026,0.321038 -0.0287,1.04353 z"
         id="path49226-0" />
      <path
         style="font-variation-settings:normal;fill:#1a1a1a;fill-opacity:1;stroke:none;stroke-width:0.580102;stroke-linecap:round;stroke-linejoin:miter;stroke-miterlimit:4.2;stroke-dasharray:none;stroke-dashoffset:0;stroke-opacity:1;paint-order:fill markers stroke;stop-color:#000000"
         d="m 86.6684,58.601456 -0.81643,0.867028 -0.51086,-0.102628 -0.56892,-0.05012 -0.27401,-0.598083 -0.7126,-0.435148 0.80315,-0.749028 0.88938,0.546611 z"
         id="path49228-6" />
      <path
         style="font-variation-settings:normal;fill:#1a1a1a;fill-opacity:1;stroke:none;stroke-width:0.580102;stroke-linecap:round;stroke-linejoin:miter;stroke-miterlimit:4.2;stroke-dasharray:none;stroke-dashoffset:0;stroke-opacity:1;paint-order:fill markers stroke;stop-color:#000000"
         d="m 57.02569,64.812549 -1.04879,-0.564208 -0.0331,-0.520018 -0.0989,-0.562502 0.50678,-0.41947 0.23589,-0.800951 0.93137,0.581926 -0.29779,1.000546 z"
         id="path49230-1" />
      <path
         style="font-variation-settings:normal;fill:#1a1a1a;fill-opacity:1;stroke:none;stroke-width:0.580102;stroke-linecap:round;stroke-linejoin:miter;stroke-miterlimit:4.2;stroke-dasharray:none;stroke-dashoffset:0;stroke-opacity:1;paint-order:fill markers stroke;stop-color:#000000"
         d="m 55.12516,67.548624 -1.0488,-0.564208 -0.0331,-0.520018 -0.0989,-0.562503 0.50678,-0.419469 0.23589,-0.800951 0.93138,0.581926 -0.2978,1.000546 z"
         id="path48425-1-5" />
      <path
         style="font-variation-settings:normal;fill:#333333;fill-opacity:1;stroke:none;stroke-width:0.580102;stroke-linecap:round;stroke-linejoin:miter;stroke-miterlimit:4.2;stroke-dasharray:none;stroke-dashoffset:0;stroke-opacity:1;paint-order:fill markers stroke;stop-color:#000000"
         d="m 49.28726,75.926619 1.04879,0.564208 0.0331,0.520017 0.0989,0.5625 -0.50677,0.419474 -0.23589,0.800947 -0.93138,-0.581924 0.2978,-1.000547 z"
         id="path48425-9" />
      <path
         style="font-variation-settings:normal;fill:#333333;fill-opacity:1;stroke:none;stroke-width:0.580102;stroke-linecap:round;stroke-linejoin:miter;stroke-miterlimit:4.2;stroke-dasharray:none;stroke-dashoffset:0;stroke-opacity:1;paint-order:fill markers stroke;stop-color:#000000"
         d="m 49.45254,58.980654 1.04879,0.564207 0.0331,0.520018 0.0989,0.5625 -0.50677,0.419474 -0.2359,0.800947 -0.93137,-0.581924 0.29779,-1.000547 z"
         id="path48425-6-4" />
      <path
         style="font-variation-settings:normal;fill:#2a638e;fill-opacity:1;stroke:none;stroke-width:0.236064;stroke-linecap:round;stroke-linejoin:miter;stroke-miterlimit:4.2;stroke-dasharray:none;stroke-dashoffset:0;stroke-opacity:1;paint-order:fill markers stroke;stop-color:#000000"
         d="m 40.856162,81.592575 -0.966943,-0.08061 -0.617854,1.539745 1.315388,0.379186 0.98914,-0.266527 -0.0045,-0.623347 -0.399067,-0.23151 z"
         id="path48305"
         sodipodi:nodetypes="cccccccc" />
      <path
         style="font-variation-settings:normal;fill:#7cbae6;fill-opacity:1;stroke:none;stroke-width:0.236064;stroke-linecap:round;stroke-linejoin:miter;stroke-miterlimit:4.2;stroke-dasharray:none;stroke-dashoffset:0;stroke-opacity:1;paint-order:fill markers stroke;stop-color:#000000"
         d="m 40.351703,81.82403 -0.462484,-0.31207 -0.617854,1.539745 1.335247,0.169389 0.179534,-0.482285 -0.15206,-0.177383 z"
         id="path48307"
         sodipodi:nodetypes="ccccccc" />
      <path
         style="opacity:1;fill:#333333;stroke-width:0.572026;stroke-linecap:round;stroke-miterlimit:4.2;paint-order:fill markers stroke;stop-color:#000000;fill-opacity:1"
         d="m 90.724443,72.792353 -0.160226,1.46258 0.285943,0.799489 0.283477,0.03697 0.616749,-0.227438 0.0304,-0.83778 -0.295966,-1.102029 z"
         id="path3387" />
    </g>
  </g>
</svg>
