<?xml version="1.0" standalone="no"?>
<!DOCTYPE svg PUBLIC "-//W3C//DTD SVG 20010904//EN"
 "http://www.w3.org/TR/2001/REC-SVG-20010904/DTD/svg10.dtd">
<svg version="1.0" xmlns="http://www.w3.org/2000/svg"
 width="460.000000pt" height="460.000000pt" viewBox="0 0 460.000000 460.000000"
 preserveAspectRatio="xMidYMid meet">

<g transform="translate(0.000000,460.000000) scale(0.100000,-0.100000)"
fill="#000000" stroke="none">
<path d="M160 4585 c0 -11 11 -15 40 -15 29 0 40 4 40 15 0 11 -11 15 -40 15
-29 0 -40 -4 -40 -15z"/>
<path d="M2765 3020 c-18 -8 -17 -9 8 -9 15 -1 30 -8 33 -16 8 -21 21 -19 27
4 7 27 -29 38 -68 21z"/>
<path d="M2872 2989 c2 -10 -9 -15 -34 -17 -21 -2 -38 -7 -38 -12 0 -5 16 -6
35 -3 44 7 47 -11 4 -26 -43 -15 -59 -14 -59 4 0 8 -2 15 -5 15 -12 0 -55 -24
-55 -32 0 -4 -6 -8 -13 -8 -8 0 -30 -16 -51 -36 -32 -31 -43 -36 -95 -39 -63
-3 -85 -11 -76 -25 4 -6 13 -5 24 2 13 8 23 8 37 0 16 -9 14 -12 -24 -27 -51
-21 -56 -45 -9 -46 24 0 27 -2 14 -8 -16 -6 -16 -9 -5 -18 7 -6 20 -13 28 -16
8 -3 2 -6 -15 -7 -16 -1 -24 -4 -17 -7 18 -7 62 5 62 17 0 6 -12 10 -27 11
l-28 1 29 12 c20 9 25 15 15 19 -9 3 -7 6 7 6 11 1 25 6 32 13 7 7 12 8 12 4
0 -5 7 -3 15 4 13 11 14 10 9 -4 -5 -12 -2 -15 10 -10 23 9 20 42 -6 66 -13
11 -17 17 -10 13 7 -4 11 -1 10 7 -2 8 10 13 37 15 22 1 50 8 62 14 13 7 26 9
30 6 3 -4 -1 -7 -10 -7 -9 0 -17 -4 -17 -10 0 -5 10 -10 23 -10 21 -1 21 -1 3
-12 -15 -8 -21 -8 -24 0 -2 7 -11 12 -19 12 -12 0 -10 -5 8 -21 13 -12 23 -26
21 -31 -3 -10 21 -8 77 8 17 5 22 4 17 -4 -5 -8 0 -12 13 -12 25 0 32 -12 20
-30 -5 -8 -9 -11 -9 -6 0 5 -6 3 -14 -3 -8 -6 -28 -13 -45 -14 -31 -2 -39 -11
-21 -22 6 -4 18 -1 27 6 13 11 18 10 30 -6 13 -19 14 -19 11 -2 -2 16 12 23
82 43 47 14 97 34 112 44 34 25 37 25 31 1 -3 -11 -12 -22 -22 -24 -9 -2 18
-3 59 -1 78 4 74 -2 -17 -26 -23 -6 -49 -17 -58 -26 -10 -10 -15 -11 -15 -3 0
9 -4 8 -15 -1 -8 -7 -30 -16 -48 -19 -21 -4 -33 -14 -36 -26 -2 -11 -8 -23
-15 -28 -13 -9 18 -30 49 -33 22 -1 105 35 118 51 4 6 10 5 16 -4 6 -9 11 -10
15 -2 4 6 15 11 24 11 23 0 5 -13 -48 -34 -75 -30 -95 -40 -102 -52 -4 -7 -28
-15 -54 -19 -34 -5 -44 -10 -40 -21 3 -8 -1 -14 -9 -14 -7 0 -16 -4 -19 -9 -3
-5 13 -4 36 2 29 7 43 7 45 0 4 -10 52 0 140 28 21 6 39 7 49 1 12 -7 41 0
100 24 109 44 141 45 92 3 -11 -11 -18 -22 -15 -25 3 -4 -1 -13 -9 -22 -9 -8
-13 -23 -11 -33 6 -24 -11 -43 -53 -59 -48 -17 -173 -80 -185 -92 -7 -7 -3 -9
14 -5 18 4 24 1 28 -14 5 -17 12 -19 42 -15 20 3 69 8 110 11 41 2 79 9 84 14
5 5 16 7 25 3 13 -5 12 -7 -4 -13 -36 -14 109 -9 206 7 52 9 100 16 105 15 6
-1 27 -4 47 -7 22 -4 56 0 85 9 61 20 127 31 98 18 -19 -10 111 -14 345 -12
124 0 153 3 138 13 -17 10 -6 11 115 9 l98 -2 -3 61 -3 62 -85 29 c-47 16
-123 35 -170 43 -120 20 -207 43 -265 70 -27 13 -66 27 -85 31 -19 4 -53 18
-76 31 -22 13 -47 24 -55 24 -8 0 -27 7 -43 15 -35 18 -132 35 -206 35 -59 0
-303 60 -357 88 -10 5 -31 12 -48 16 -27 6 -28 5 -12 -8 16 -12 15 -14 -15
-20 -19 -4 -34 -2 -36 4 -6 16 -22 12 -22 -6 0 -13 7 -15 36 -11 30 5 34 4 24
-8 -13 -16 -56 -20 -64 -7 -3 5 -33 3 -68 -4 -82 -18 -108 -17 -108 0 0 10 16
17 48 21 26 4 64 16 85 26 22 11 49 17 60 14 12 -3 6 2 -13 11 -19 9 -71 34
-115 55 -99 46 -137 57 -133 38z m38 -29 c-20 -13 -33 -13 -25 0 3 6 14 10 23
10 15 0 15 -2 2 -10z m5 -150 c4 -6 -5 -10 -20 -10 -15 0 -24 4 -20 10 3 6 12
10 20 10 8 0 17 -4 20 -10z m378 -27 c-7 -2 -21 -2 -30 0 -10 3 -4 5 12 5 17
0 24 -2 18 -5z m296 -57 c-9 -9 -162 -24 -178 -18 -11 5 -3 9 24 13 49 7 160
11 154 5z m11 -42 c0 -6 -88 -44 -101 -44 -18 0 -9 21 14 31 21 9 21 9 -3 5
-14 -2 -50 -11 -80 -20 -50 -14 -72 -14 -58 -1 20 20 228 46 228 29z m-324
-39 c-3 -22 -16 -31 -25 -16 -7 11 -18 10 -62 -2 -48 -15 -71 -15 -57 -2 4 4
107 29 140 34 3 1 5 -6 4 -14z m-231 -45 c-3 -5 1 -10 10 -10 31 0 9 -22 -40
-41 -27 -10 -51 -17 -53 -14 -5 4 59 45 71 45 4 0 6 3 6 8 -2 12 1 22 7 22 3
0 2 -4 -1 -10z m372 -140 c-1 -23 -49 -45 -74 -35 -15 5 -11 11 22 31 48 29
54 30 52 4z m-117 -44 c0 -2 -7 -7 -16 -10 -8 -3 -12 -2 -9 4 6 10 25 14 25 6z"/>
<path d="M2250 2910 c-30 -16 -61 -29 -68 -30 -8 0 -32 -15 -55 -34 -23 -18
-53 -37 -67 -40 l-25 -7 25 22 25 22 -25 -7 c-14 -3 -59 -11 -100 -16 -98 -13
-117 -19 -99 -32 10 -7 8 -8 -8 -3 -29 8 -143 -47 -191 -92 -19 -18 -41 -32
-47 -30 -6 3 -24 -6 -40 -19 -26 -21 -30 -21 -41 -6 -11 15 -16 14 -64 -11
-28 -15 -54 -27 -57 -27 -12 0 4 33 17 36 17 3 129 55 178 83 l32 19 -62 7
c-143 17 -258 2 -347 -46 -19 -10 -45 -19 -56 -19 -21 0 -63 -15 -127 -43 -21
-10 -61 -22 -90 -28 -29 -6 -73 -17 -98 -24 -112 -34 -280 -72 -365 -82 -22
-2 -63 -15 -90 -27 -28 -13 -75 -27 -105 -31 -62 -8 -160 -34 -160 -42 0 -6
81 4 114 14 15 4 18 2 13 -12 -6 -14 -1 -16 26 -14 17 2 37 6 42 10 18 12 120
43 133 41 6 -2 12 5 13 15 0 11 3 13 6 6 5 -15 85 -18 111 -4 9 4 37 11 62 15
41 6 43 6 25 -8 -18 -13 -11 -14 75 -11 55 2 89 0 80 -5 -12 -8 82 -13 220
-12 35 0 40 -2 25 -9 -25 -11 68 -3 143 12 58 12 80 6 41 -11 -20 -9 -15 -10
25 -5 42 4 47 3 36 -10 -11 -13 -7 -15 22 -15 19 0 38 4 43 8 6 5 37 17 70 28
33 10 62 21 65 24 10 11 66 32 94 36 15 2 47 12 70 22 22 11 60 27 84 37 23
10 42 24 42 31 0 7 15 18 34 25 40 14 63 44 41 53 -8 3 -15 1 -15 -4 0 -16
-30 -11 -36 5 -6 14 -8 14 -19 -1 -8 -12 -12 -13 -11 -3 0 13 36 56 36 44 0
-3 8 3 18 13 13 13 35 19 69 20 27 1 68 11 91 22 23 11 45 20 49 20 11 0 73
59 73 70 0 5 26 16 57 25 32 9 68 28 82 41 30 30 28 30 -39 -6z m-1010 -260
c0 -6 -12 -16 -27 -22 -16 -7 -46 -24 -68 -39 -22 -14 -51 -30 -65 -34 -24 -7
-24 -7 -5 9 11 8 24 16 29 16 5 0 18 10 30 23 19 20 80 55 99 56 4 1 7 -4 7
-9z m129 -16 c11 -10 -36 -39 -59 -36 -33 5 -55 34 -32 44 16 7 82 1 91 -8z
m232 -7 c-10 -9 -11 -8 -5 6 3 10 9 15 12 12 3 -3 0 -11 -7 -18z m129 -7 c0
-5 -10 -10 -22 -10 -19 0 -20 2 -8 10 19 13 30 13 30 0z m68 -4 c-10 -7 -15
-16 -11 -19 3 -4 1 -7 -5 -7 -22 0 -23 20 0 29 32 13 36 13 16 -3z m-398 -12
c0 -8 -5 -12 -10 -9 -6 4 -8 11 -5 16 9 14 15 11 15 -7z m160 -7 c13 -5 13 -6
-1 -6 -8 -1 -24 6 -35 15 -19 15 -19 15 1 6 11 -5 27 -12 35 -15z m-493 7 c-3
-3 -12 -4 -19 -1 -8 3 -5 6 6 6 11 1 17 -2 13 -5z m447 -20 c3 -9 2 -12 -5 -9
-5 4 -15 2 -22 -3 -7 -5 -32 -12 -57 -15 -45 -6 -45 -6 -15 8 17 8 38 14 48
15 9 0 17 5 17 10 0 16 27 12 34 -6z m-144 -13 c0 -5 -12 -11 -27 -14 -16 -3
-40 -9 -55 -13 -17 -4 -28 -2 -28 4 0 6 19 15 43 20 57 13 67 14 67 3z m320
-6 c0 -9 -6 -12 -15 -9 -8 4 -12 10 -9 15 8 14 24 10 24 -6z m-845 -15 c-3 -5
-14 -10 -23 -9 -14 0 -13 2 3 9 27 11 27 11 20 0z m205 -5 c0 -2 -9 -9 -20
-15 -12 -6 -20 -7 -20 -1 0 5 8 12 18 14 9 3 18 5 20 6 1 0 2 -1 2 -4z m75 -5
c-11 -5 -27 -9 -35 -9 -9 0 -8 4 5 9 11 5 27 9 35 9 9 0 8 -4 -5 -9z m-320
-10 c3 -5 1 -10 -4 -10 -6 0 -11 5 -11 10 0 6 2 10 4 10 3 0 8 -4 11 -10z
m155 5 c0 -8 -90 -48 -96 -42 -3 3 14 14 38 25 46 22 58 25 58 17z m277 -1
c-3 -3 -12 -4 -19 -1 -8 3 -5 6 6 6 11 1 17 -2 13 -5z m143 -10 c0 -2 -7 -4
-15 -4 -8 0 -15 4 -15 10 0 5 7 7 15 4 8 -4 15 -8 15 -10z m-413 -20 c-3 -3
-12 -4 -19 -1 -8 3 -5 6 6 6 11 1 17 -2 13 -5z m-142 -29 c-16 -8 -37 -14 -45
-14 -8 0 -1 6 15 14 17 7 37 13 45 13 8 0 2 -6 -15 -13z m710 5 c-3 -5 -21
-10 -38 -10 -24 0 -28 3 -17 10 20 13 63 13 55 0z m-535 -9 c-26 -15 -66 -24
-55 -13 6 5 19 12 30 15 32 8 41 7 25 -2z m437 -27 c-3 -3 -12 -4 -19 -1 -8 3
-5 6 6 6 11 1 17 -2 13 -5z"/>
<path d="M2625 2924 c-11 -8 -27 -19 -35 -24 -8 -5 -12 -11 -9 -14 7 -7 89 34
89 45 0 14 -23 10 -45 -7z"/>
<path d="M2507 2914 c-16 -9 -27 -18 -24 -20 7 -7 57 18 57 28 0 10 1 10 -33
-8z"/>
<path d="M2295 2900 c-3 -5 -1 -10 4 -10 6 0 11 5 11 10 0 6 -2 10 -4 10 -3 0
-8 -4 -11 -10z"/>
<path d="M2240 2853 c-20 -7 -74 -72 -66 -80 4 -4 28 14 54 40 44 45 46 51 12
40z"/>
<path d="M2681 2814 c0 -11 3 -14 6 -6 3 7 2 16 -1 19 -3 4 -6 -2 -5 -13z"/>
<path d="M2253 2784 c-19 -14 -33 -20 -33 -13 0 8 -5 7 -17 -3 -33 -28 -85
-50 -110 -45 -26 5 -83 -12 -83 -25 0 -4 15 -1 33 7 21 9 38 10 48 4 11 -7 11
-9 -3 -9 -10 0 -18 -4 -18 -10 0 -16 18 -12 72 15 28 14 63 27 78 29 29 3 103
59 93 70 -12 11 -28 6 -60 -20z"/>
<path d="M2438 2762 c-16 -9 -28 -20 -28 -25 0 -4 14 2 30 15 26 19 36 29 28
28 -2 0 -15 -8 -30 -18z"/>
<path d="M2738 2773 c7 -3 16 -2 19 1 4 3 -2 6 -13 5 -11 0 -14 -3 -6 -6z"/>
<path d="M2688 2763 c7 -3 16 -2 19 1 4 3 -2 6 -13 5 -11 0 -14 -3 -6 -6z"/>
<path d="M2595 2740 c-3 -5 -2 -10 4 -10 5 0 13 5 16 10 3 6 2 10 -4 10 -5 0
-13 -4 -16 -10z"/>
<path d="M2346 2725 c-49 -17 -73 -38 -29 -26 34 10 93 40 78 40 -5 0 -27 -6
-49 -14z"/>
<path d="M2593 2698 c-2 -5 12 -8 31 -8 19 0 37 4 41 9 3 6 -10 9 -31 8 -20
-1 -38 -5 -41 -9z"/>
<path d="M1985 2690 c3 -5 8 -10 11 -10 2 0 4 5 4 10 0 6 -5 10 -11 10 -5 0
-7 -4 -4 -10z"/>
<path d="M2003 2673 c-24 -8 -43 -19 -43 -24 0 -12 17 -12 24 0 3 5 22 12 41
15 19 4 35 11 35 16 0 12 -5 12 -57 -7z"/>
<path d="M2880 2645 c-19 -23 -8 -25 14 -4 11 11 15 19 9 19 -6 0 -16 -7 -23
-15z"/>
<path d="M2748 2643 c7 -3 16 -2 19 1 4 3 -2 6 -13 5 -11 0 -14 -3 -6 -6z"/>
<path d="M2678 2633 c6 -2 18 -2 25 0 6 3 1 5 -13 5 -14 0 -19 -2 -12 -5z"/>
<path d="M2170 2585 c-46 -17 -57 -24 -38 -24 26 -1 118 33 118 44 0 7 -8 5
-80 -20z"/>
<path d="M2080 2539 c0 -5 -5 -7 -10 -4 -16 10 -84 -15 -72 -27 12 -12 92 13
92 29 0 7 -2 13 -5 13 -3 0 -5 -5 -5 -11z"/>
<path d="M2775 2513 c-44 -14 -82 -27 -83 -29 -2 -1 1 -11 7 -21 10 -17 10
-17 11 1 0 13 5 17 20 13 11 -3 20 -1 20 4 0 5 9 9 20 9 11 0 20 5 20 10 0 6
6 10 13 10 15 1 76 28 62 29 -5 0 -46 -12 -90 -26z"/>
<path d="M1958 2503 c7 -3 16 -2 19 1 4 3 -2 6 -13 5 -11 0 -14 -3 -6 -6z"/>
<path d="M1888 2493 c-20 -5 -24 -23 -5 -23 6 1 23 7 37 15 22 12 22 14 5 13
-11 0 -28 -2 -37 -5z"/>
<path d="M2920 2480 c-13 -9 -13 -10 0 -9 8 0 24 4 35 9 l20 9 -20 0 c-11 0
-27 -4 -35 -9z"/>
<path d="M2660 2445 c-7 -8 -17 -12 -23 -8 -6 3 -7 1 -3 -5 8 -14 46 2 46 18
0 14 -6 12 -20 -5z"/>
<path d="M1975 2440 c-8 -13 5 -13 25 0 13 8 13 10 -2 10 -9 0 -20 -4 -23 -10z"/>
<path d="M2550 2430 c-14 -26 1 -26 31 0 l24 19 -22 1 c-12 0 -27 -9 -33 -20z"/>
<path d="M1660 2410 c-36 -16 -74 -30 -85 -30 -11 -1 -14 -4 -8 -7 15 -5 95
20 150 47 60 30 15 22 -57 -10z"/>
<path d="M1940 2420 c-8 -5 -11 -12 -7 -16 4 -4 13 -2 19 4 15 15 7 24 -12 12z"/>
<path d="M1595 2410 c-3 -6 1 -7 9 -4 18 7 21 14 7 14 -6 0 -13 -4 -16 -10z"/>
<path d="M2473 2413 c9 -2 25 -2 35 0 9 3 1 5 -18 5 -19 0 -27 -2 -17 -5z"/>
<path d="M415 2400 c-4 -6 6 -7 27 -3 44 8 48 13 10 13 -17 0 -34 -4 -37 -10z"/>
<path d="M2391 2394 c-53 -16 -68 -29 -26 -21 17 3 50 9 75 13 36 5 41 8 25
15 -25 9 -21 10 -74 -7z"/>
<path d="M2498 2393 c7 -3 16 -2 19 1 4 3 -2 6 -13 5 -11 0 -14 -3 -6 -6z"/>
<path d="M2310 2359 c0 -5 5 -7 10 -4 6 3 10 8 10 11 0 2 -4 4 -10 4 -5 0 -10
-5 -10 -11z"/>
<path d="M2498 2363 c-10 -2 -18 -9 -18 -14 0 -6 10 -5 23 2 37 20 36 23 -5
12z"/>
<path d="M4428 2363 c7 -3 16 -2 19 1 4 3 -2 6 -13 5 -11 0 -14 -3 -6 -6z"/>
<path d="M4508 2363 c7 -3 16 -2 19 1 4 3 -2 6 -13 5 -11 0 -14 -3 -6 -6z"/>
<path d="M3220 2123 c-14 -7 -36 -13 -50 -13 -14 0 -61 -7 -105 -14 -44 -8
-91 -13 -105 -11 -14 1 -41 -4 -60 -12 -37 -15 -198 -21 -219 -9 -7 4 -18 2
-26 -4 -8 -7 -15 -9 -15 -4 -1 5 -10 -2 -22 -16 -14 -16 -22 -21 -25 -12 -3 6
-11 12 -18 12 -7 0 -15 8 -18 18 -3 12 -6 8 -12 -13 -4 -16 -13 -37 -20 -45
-22 -28 -25 -49 -7 -59 27 -15 9 -22 -21 -8 -15 6 -25 17 -23 24 3 7 -1 10
-10 6 -9 -3 -12 -12 -8 -26 5 -16 3 -19 -10 -14 -9 4 -16 2 -16 -3 0 -6 4 -10
9 -10 5 0 11 -7 15 -15 4 -12 0 -14 -22 -10 -15 3 -21 2 -14 -1 17 -8 15 -31
-3 -38 -10 -4 -20 3 -27 19 -7 17 -20 25 -37 26 -22 1 -20 3 9 9 25 5 14 7
-42 6 -72 -1 -77 0 -74 19 2 11 1 14 -1 8 -9 -26 -30 -12 -46 29 -16 39 -16
43 0 60 15 17 14 18 -13 18 -19 0 -42 11 -63 31 -30 27 -38 29 -72 24 -22 -4
-39 -10 -39 -14 0 -4 -27 -6 -60 -4 -47 3 -63 0 -77 -15 -16 -15 -23 -16 -53
-6 -20 7 -50 14 -68 16 -19 2 -38 10 -43 18 -7 9 -12 11 -15 4 -3 -6 -22 -8
-54 -4 -59 8 -200 -8 -200 -22 0 -7 -17 -8 -42 -5 -24 3 -35 3 -25 0 21 -5 23
-20 3 -25 -13 -3 -12 -6 1 -23 11 -14 17 -16 20 -7 4 10 8 9 17 -4 7 -9 26
-18 41 -20 16 -2 31 -7 34 -12 11 -16 49 -32 65 -26 8 3 23 1 33 -5 14 -8 6
-10 -39 -11 -32 0 -58 -4 -58 -9 0 -12 20 -18 85 -26 69 -9 177 -43 189 -61
11 -15 143 -47 157 -38 5 3 19 -2 31 -10 25 -15 138 -11 138 5 0 5 7 9 15 9 8
0 15 -9 15 -21 0 -13 10 -23 30 -30 17 -6 30 -15 30 -21 0 -5 23 -19 52 -32
46 -21 57 -22 102 -12 38 9 52 17 55 31 2 11 9 24 17 28 8 4 14 15 14 22 0 21
26 19 34 -2 5 -11 0 -23 -11 -31 -16 -13 -16 -14 9 -8 20 4 30 1 37 -11 8 -15
12 -16 23 -5 10 10 16 6 30 -20 9 -18 17 -28 18 -22 0 7 20 8 59 3 62 -7 84
-15 76 -28 -2 -5 7 -13 20 -19 14 -7 25 -16 25 -21 0 -5 11 -12 25 -15 14 -4
25 -11 25 -16 0 -6 7 -10 15 -10 8 0 15 6 15 14 0 10 11 12 44 9 36 -5 47 -2
62 16 10 11 22 21 26 21 4 0 24 16 44 35 19 19 42 35 50 35 8 0 17 6 20 14 6
15 120 16 143 2 7 -5 31 0 54 12 23 11 67 25 97 32 30 7 60 16 65 21 17 12 95
31 145 34 169 10 237 18 250 29 8 7 34 18 57 25 23 6 48 17 55 24 7 6 44 20
82 30 39 10 77 24 85 31 9 7 61 19 116 25 158 18 143 13 260 78 11 7 28 14 38
17 10 3 15 10 12 16 -3 5 3 10 14 10 12 0 21 6 21 13 0 8 -26 13 -93 14 -50 1
-218 5 -372 8 -527 12 -848 12 -875 -2z m-497 -120 c-7 -2 -19 -2 -25 0 -7 3
-2 5 12 5 14 0 19 -2 13 -5z m-746 -75 c-3 -8 -6 -5 -6 6 -1 11 2 17 5 13 3
-3 4 -12 1 -19z m-307 -23 c0 -8 -4 -15 -10 -15 -5 0 -7 7 -4 15 4 8 8 15 10
15 2 0 4 -7 4 -15z"/>
<path d="M1182 2035 c3 -14 1 -25 -5 -25 -6 0 -5 -5 2 -12 11 -10 14 -10 18 0
3 6 9 12 15 12 6 0 8 -6 5 -13 -3 -8 3 -13 17 -14 11 0 15 1 9 4 -20 7 -15 19
8 20 48 4 38 23 -14 25 -25 1 -34 5 -30 15 3 8 -2 13 -12 13 -13 0 -16 -6 -13
-25z"/>
<path d="M1235 2050 c-3 -5 3 -10 15 -10 12 0 18 5 15 10 -3 6 -10 10 -15 10
-5 0 -12 -4 -15 -10z"/>
<path d="M1310 2026 c0 -10 9 -16 21 -16 24 0 21 23 -4 28 -10 2 -17 -3 -17
-12z"/>
<path d="M2336 1980 c-42 -3 -71 -10 -73 -17 -4 -11 7 -15 69 -27 32 -7 81 9
84 27 3 22 1 23 -80 17z"/>
<path d="M2288 1923 c6 -2 18 -2 25 0 6 3 1 5 -13 5 -14 0 -19 -2 -12 -5z"/>
<path d="M1112 1888 c3 -9 29 -14 77 -16 56 -2 72 0 69 10 -3 9 -29 14 -77 16
-56 2 -72 0 -69 -10z"/>
<path d="M806 1861 c-18 -7 -18 -8 -2 -14 32 -13 128 -8 124 6 -5 14 -93 20
-122 8z"/>
<path d="M941 1854 c0 -11 3 -14 6 -6 3 7 2 16 -1 19 -3 4 -6 -2 -5 -13z"/>
<path d="M550 1820 c-63 -3 -87 -7 -70 -12 35 -11 178 -10 184 1 9 14 -13 16
-114 11z"/>
<path d="M230 1770 c-8 -5 -12 -11 -10 -14 3 -2 54 -6 115 -8 98 -3 110 -1
113 15 3 15 -7 17 -100 17 -57 0 -110 -4 -118 -10z"/>
<path d="M180 1691 c0 -17 158 -28 208 -15 52 14 14 24 -93 24 -63 0 -115 -4
-115 -9z"/>
<path d="M381 1632 c-108 -3 -141 -13 -120 -38 9 -11 42 -14 133 -14 126 0
151 6 141 32 -8 21 -30 24 -154 20z"/>
<path d="M525 1507 c-11 -16 -12 -24 -2 -35 17 -21 262 -11 284 11 14 13 13
16 -3 25 -11 5 -74 12 -142 15 -116 5 -123 4 -137 -16z"/>
<path d="M1290 1393 c0 -5 -68 -10 -151 -10 -155 -1 -191 -10 -148 -35 26 -14
309 -25 355 -14 20 5 24 11 18 29 -8 27 -3 23 -41 32 -18 3 -33 3 -33 -2z"/>
<path d="M1723 1173 c-108 -3 -142 -11 -115 -26 4 -2 2 -2 -5 -1 -23 6 -24
-15 -2 -27 67 -35 303 -50 406 -25 32 8 75 17 96 21 43 7 47 18 14 40 -27 17
-187 25 -394 18z"/>
<path d="M1738 873 c7 -3 16 -2 19 1 4 3 -2 6 -13 5 -11 0 -14 -3 -6 -6z"/>
<path d="M3485 850 c-48 -18 -215 -28 -170 -11 17 7 15 9 -12 13 -18 2 -30 1
-27 -4 3 -4 -50 -8 -118 -8 -133 0 -167 -9 -127 -31 28 -15 199 -29 424 -34
135 -3 163 -1 178 12 61 55 -45 101 -148 63z m130 -30 c-3 -5 -11 -10 -16 -10
-6 0 -7 5 -4 10 3 6 11 10 16 10 6 0 7 -4 4 -10z m-48 -26 c-3 -3 -12 -4 -19
-1 -8 3 -5 6 6 6 11 1 17 -2 13 -5z"/>
<path d="M300 830 c-21 -7 -21 -8 -5 -9 11 0 27 4 35 9 18 11 5 11 -30 0z"/>
<path d="M437 834 c-8 -8 1 -24 14 -24 5 0 9 7 9 15 0 15 -12 20 -23 9z"/>
<path d="M1413 833 c9 -2 25 -2 35 0 9 3 1 5 -18 5 -19 0 -27 -2 -17 -5z"/>
<path d="M80 820 c0 -5 5 -10 11 -10 5 0 7 5 4 10 -3 6 -8 10 -11 10 -2 0 -4
-4 -4 -10z"/>
<path d="M160 820 c0 -13 30 -13 50 0 11 7 7 10 -17 10 -18 0 -33 -4 -33 -10z"/>
<path d="M963 803 c9 -2 25 -2 35 0 9 3 1 5 -18 5 -19 0 -27 -2 -17 -5z"/>
<path d="M228 783 c6 -2 18 -2 25 0 6 3 1 5 -13 5 -14 0 -19 -2 -12 -5z"/>
<path d="M308 783 c7 -3 16 -2 19 1 4 3 -2 6 -13 5 -11 0 -14 -3 -6 -6z"/>
<path d="M449 782 c-1 -4 -1 -10 0 -14 2 -13 -37 -9 -42 5 -4 9 -6 9 -6 -1 -1
-7 -5 -11 -10 -7 -5 3 -12 1 -16 -5 -4 -6 14 -10 48 -10 40 0 54 4 54 15 0 14
-26 31 -28 17z"/>
<path d="M1505 780 c3 -5 8 -10 11 -10 2 0 4 5 4 10 0 6 -5 10 -11 10 -5 0 -7
-4 -4 -10z"/>
<path d="M816 771 c5 -5 21 -13 37 -16 22 -6 26 -4 21 9 -4 10 -18 16 -37 16
-19 0 -27 -4 -21 -9z"/>
<path d="M640 760 c0 -6 33 -9 83 -9 77 2 79 2 32 9 -72 12 -115 11 -115 0z"/>
<path d="M10 751 c0 -5 7 -14 15 -21 12 -10 18 -10 30 0 23 19 18 30 -15 30
-17 0 -30 -4 -30 -9z"/>
<path d="M115 750 c22 -4 49 -4 60 1 13 5 0 8 -40 7 -56 0 -58 -1 -20 -8z"/>
<path d="M328 753 c7 -3 16 -2 19 1 4 3 -2 6 -13 5 -11 0 -14 -3 -6 -6z"/>
<path d="M1500 739 l-25 -7 23 -7 c12 -4 22 -12 22 -17 0 -6 7 -5 15 2 19 15
27 9 29 -22 1 -15 7 -23 19 -22 9 1 17 -2 17 -7 0 -5 18 -9 40 -9 65 0 51 28
-17 34 -32 3 -38 7 -38 27 0 18 -7 25 -30 29 -17 3 -41 3 -55 -1z"/>
<path d="M226 733 c-7 -7 -119 -22 -193 -25 l-33 -1 0 -354 0 -353 2300 0
2300 0 0 198 0 197 -105 2 c-57 1 -112 6 -122 12 -17 10 -17 10 2 11 47 3 162
-1 192 -6 28 -5 32 -3 30 15 -1 13 -8 21 -19 21 -10 0 -18 5 -18 10 0 6 -14
10 -30 10 -24 0 -30 4 -28 18 2 12 -3 16 -19 15 -13 -2 -23 2 -23 7 0 13 -27
13 -35 -1 -4 -6 2 -13 14 -16 20 -5 29 -27 14 -36 -5 -2 -26 -7 -48 -10 -22
-4 -33 -4 -25 0 16 6 30 23 30 36 0 5 -10 1 -22 -7 -12 -9 -33 -16 -46 -16
-13 0 -20 -4 -17 -10 4 -6 -11 -11 -37 -11 l-43 -2 38 -10 c49 -14 48 -31 -2
-22 -23 4 -48 2 -60 -5 -30 -15 -48 -2 -22 17 29 20 26 30 -9 29 -17 -1 -30
-7 -30 -13 0 -7 -9 -13 -21 -13 -11 0 -29 -5 -40 -10 -10 -6 -19 -7 -19 -2 0
5 15 17 33 26 l32 16 -50 -1 c-37 0 -45 -3 -30 -9 16 -7 13 -9 -17 -9 -45 -1
-68 7 -68 24 0 10 10 12 35 8 29 -5 35 -2 35 11 0 15 -6 16 -32 11 -18 -4 -44
-14 -58 -23 -14 -10 -34 -19 -44 -22 -24 -7 -33 -30 -12 -30 9 0 16 -4 16 -10
0 -5 -18 -10 -41 -10 -24 0 -38 4 -34 10 3 6 14 10 23 11 14 0 13 3 -5 16 -13
8 -23 23 -23 31 0 14 -1 14 -12 0 -7 -9 -33 -18 -58 -22 -32 -4 -41 -3 -30 4
19 12 8 13 -24 0 -14 -5 -28 -5 -31 0 -3 4 1 10 7 13 7 2 11 7 8 10 -7 7 -93
-15 -102 -27 -5 -8 -26 -7 -128 8 -29 5 -31 4 -10 -3 23 -8 22 -9 -12 -10 -20
-1 -40 -5 -43 -11 -3 -5 -19 -10 -34 -10 -15 0 -31 -4 -37 -9 -5 -5 -35 -4
-74 4 l-65 13 50 2 c28 1 64 6 80 10 l30 7 -27 7 c-16 5 -35 5 -43 2 -10 -4
-14 -2 -9 5 4 6 1 14 -5 18 -7 5 -3 12 13 19 16 7 28 8 31 2 4 -6 -4 -10 -17
-11 -22 0 -22 -1 -3 -9 27 -12 85 -12 85 -1 0 5 -10 11 -22 13 -13 2 -22 9
-20 16 2 13 -60 15 -113 3 -16 -4 -40 -3 -53 3 -16 6 -30 5 -48 -4 -22 -12
-29 -12 -57 3 -20 10 -62 18 -112 20 l-80 3 94 2 c129 3 109 13 -25 13 -194 0
-231 -2 -209 -11 13 -6 15 -9 5 -9 -20 -1 -45 21 -45 39 0 19 -39 27 -133 29
-71 1 -112 -10 -112 -29 0 -6 25 -10 55 -10 30 0 55 -4 55 -9 0 -12 -189 -11
-196 1 -3 4 4 8 15 8 11 0 23 5 26 10 3 6 -3 10 -14 10 -12 0 -21 4 -21 9 0 5
-29 6 -64 4 -37 -3 -71 -1 -82 5 -16 10 -12 11 24 12 23 0 42 5 42 11 0 5 8 9
18 8 33 -3 53 1 47 10 -6 11 -40 9 -68 -3 -9 -5 -30 -5 -45 -2 -68 17 -81 17
-123 -2 -40 -18 -41 -20 -19 -25 21 -3 19 -5 -7 -6 -18 0 -33 4 -33 9 0 6 -13
10 -29 10 -17 0 -33 5 -36 10 -4 6 -3 10 2 9 4 -1 26 0 48 1 l40 3 -50 7 c-57
8 -75 4 -75 -16 0 -21 -113 -19 -134 2 -32 31 -25 36 54 36 l45 -1 -42 10
c-24 6 -43 14 -43 20 0 14 -70 10 -110 -7 l-35 -14 41 6 c45 6 66 -14 38 -36
-10 -9 -14 -9 -14 -1 0 14 -11 14 -47 0 -15 -6 -60 -12 -100 -13 l-72 -2 -3
30 c-2 22 -9 32 -23 34 -17 3 -18 1 -5 -8 11 -8 -8 -10 -77 -8 -72 2 -89 0
-81 -9 13 -17 -13 -27 -46 -19 -15 4 -26 1 -28 -6 -2 -6 -10 -8 -17 -4 -9 6
-8 11 6 22 17 12 16 13 -12 14 -34 0 -63 15 -52 26 4 4 13 2 19 -4 17 -17 103
-15 118 3 11 13 7 15 -24 15 -20 0 -36 5 -36 11 0 7 -16 8 -45 3 -29 -4 -50
-2 -59 5 -10 8 -20 7 -42 -4 -16 -8 -34 -15 -41 -15 -15 0 -6 -27 10 -33 7 -2
0 -2 -15 0 -21 3 -28 0 -28 -11 0 -9 -4 -16 -10 -16 -5 0 -10 11 -10 25 0 22
-3 24 -19 15 -11 -5 -35 -10 -53 -10 -19 0 -39 -5 -45 -11 -7 -7 -24 -8 -43
-4 -38 8 -23 25 16 17 16 -3 26 1 30 13 5 13 14 15 41 10 27 -5 34 -3 31 7 -3
7 -11 13 -19 13 -8 0 -17 5 -22 10 -5 6 -12 4 -20 -6 -7 -9 -35 -19 -64 -22
-29 -4 -75 -10 -103 -13 -34 -5 -50 -3 -50 5 0 6 16 11 36 11 19 0 41 6 48 13
10 10 -11 11 -103 9 -143 -3 -161 -7 -161 -32 0 -13 -7 -20 -19 -20 -23 0 -40
22 -23 28 30 10 7 22 -43 22 -30 0 -55 -4 -55 -10 0 -5 18 -10 40 -10 42 0 57
-19 18 -21 -13 -1 -41 -3 -63 -5 -51 -3 -75 4 -75 22 0 20 -48 38 -65 24 -9
-8 -14 -8 -17 0 -2 6 -7 8 -12 3z m67 -40 c4 -2 5 -9 2 -14 -6 -9 -1 -11 50
-12 30 0 30 0 3 -4 -34 -5 -36 -18 -5 -28 l22 -8 -22 -4 c-15 -3 -31 5 -51 25
-15 16 -40 32 -55 36 -42 10 -33 28 11 20 20 -4 40 -9 45 -11z m327 7 c21 -7
19 -8 -17 -9 -24 -1 -43 4 -43 9 0 12 24 12 60 0z m-440 -10 c0 -5 -4 -10 -10
-10 -5 0 -10 5 -10 10 0 6 5 10 10 10 6 0 10 -4 10 -10z m1005 0 c4 -6 -7 -10
-25 -10 -18 0 -29 4 -25 10 3 6 15 10 25 10 10 0 22 -4 25 -10z m638 -7 c-7
-2 -19 -2 -25 0 -7 3 -2 5 12 5 14 0 19 -2 13 -5z m-1740 -10 c-7 -2 -21 -2
-30 0 -10 3 -4 5 12 5 17 0 24 -2 18 -5z m540 -3 c9 0 17 -4 17 -10 0 -5 -22
-10 -50 -10 -27 0 -50 4 -50 9 0 13 22 21 45 16 11 -3 28 -5 38 -5z m62 0 c-3
-5 -10 -10 -16 -10 -5 0 -9 5 -9 10 0 6 7 10 16 10 8 0 12 -4 9 -10z m-445 -9
c0 -6 -17 -7 -37 -4 -52 8 -54 13 -5 13 23 0 42 -4 42 -9z m609 -7 c2 -2 -15
-4 -38 -4 -25 0 -40 4 -36 10 5 8 63 3 74 -6z m391 -14 c13 -25 9 -27 -85 -33
-41 -3 -62 -1 -50 4 11 4 36 8 55 8 19 1 41 5 48 10 7 4 -12 6 -42 3 -30 -2
-63 -1 -73 2 -32 12 7 26 74 26 52 0 64 -3 73 -20z m-1060 -10 c0 -5 -4 -10
-10 -10 -5 0 -10 5 -10 10 0 6 5 10 10 10 6 0 10 -4 10 -10z m397 -6 c-3 -3
-12 -4 -19 -1 -8 3 -5 6 6 6 11 1 17 -2 13 -5z m1183 -4 c0 -12 -44 -24 -62
-17 -8 3 -4 9 12 15 32 14 50 14 50 2z m-400 -28 c6 -4 -22 -22 -37 -22 -7 0
-13 7 -13 15 0 8 -8 15 -17 15 -15 0 -15 2 -4 9 12 8 50 -1 71 -17z m456 13
c-3 -8 0 -16 7 -16 7 -1 -1 -5 -18 -9 -45 -11 -125 -11 -125 0 0 6 18 10 39
10 25 0 41 5 45 15 3 8 17 15 32 15 19 0 25 -4 20 -15z m-143 -15 c-6 -22 -33
-28 -33 -7 0 17 10 27 26 27 7 0 10 -8 7 -20z m312 0 c3 -5 -3 -10 -14 -10
-12 0 -21 5 -21 10 0 6 6 10 14 10 8 0 18 -4 21 -10z m-1305 -10 c-20 -13 -40
-13 -40 0 0 6 12 10 28 10 21 0 24 -2 12 -10z m851 1 c-8 -5 -20 -7 -28 -4
-21 8 -15 13 15 13 20 0 23 -3 13 -9z m85 -20 c-4 -6 -16 -11 -27 -11 -18 0
-18 1 -1 19 17 18 40 12 28 -8z m291 23 c-3 -3 -12 -4 -19 -1 -8 3 -5 6 6 6
11 1 17 -2 13 -5z m173 -24 c0 -5 -12 -10 -27 -9 -25 0 -26 1 -8 9 27 12 35
12 35 0z m95 0 c3 -5 -1 -10 -10 -10 -9 0 -13 5 -10 10 3 6 8 10 10 10 2 0 7
-4 10 -10z m-658 -6 c-3 -3 -12 -4 -19 -1 -8 3 -5 6 6 6 11 1 17 -2 13 -5z
m376 -1 c-7 -2 -21 -2 -30 0 -10 3 -4 5 12 5 17 0 24 -2 18 -5z m87 -3 c0 -5
-15 -10 -32 -9 -31 1 -32 1 -8 9 35 11 40 11 40 0z m-513 -26 c-3 -3 -12 -4
-19 -1 -8 3 -5 6 6 6 11 1 17 -2 13 -5z m180 0 c-3 -3 -12 -4 -19 -1 -8 3 -5
6 6 6 11 1 17 -2 13 -5z m190 0 c-3 -3 -12 -4 -19 -1 -8 3 -5 6 6 6 11 1 17
-2 13 -5z m131 -1 c-10 -2 -26 -2 -35 0 -10 3 -2 5 17 5 19 0 27 -2 18 -5z
m122 -3 c18 -12 2 -12 -25 0 -13 6 -15 9 -5 9 8 0 22 -4 30 -9z m773 3 c-7 -2
-21 -2 -30 0 -10 3 -4 5 12 5 17 0 24 -2 18 -5z m-2280 -10 c-7 -2 -21 -2 -30
0 -10 3 -4 5 12 5 17 0 24 -2 18 -5z m1890 -20 c-13 -2 -35 -2 -50 0 -16 2 -5
4 22 4 28 0 40 -2 28 -4z m-2123 -29 c0 -2 -7 -4 -15 -4 -8 0 -15 4 -15 10 0
5 7 7 15 4 8 -4 15 -8 15 -10z m1825 6 c13 -6 15 -9 5 -9 -8 0 -22 4 -30 9
-18 12 -2 12 25 0z m941 -7 c15 -16 17 -16 29 0 15 21 25 22 25 3 0 -8 8 -17
18 -19 9 -3 -11 -5 -44 -6 -41 -1 -65 4 -73 12 -23 28 17 37 45 10z m569 -53
c-3 -5 -13 -10 -21 -10 -8 0 -14 5 -14 10 0 6 9 10 21 10 11 0 17 -4 14 -10z
m-95 -10 c0 -5 -17 -10 -37 -10 -28 0 -34 3 -23 10 20 13 60 13 60 0z m25 1
c3 -5 1 -12 -5 -16 -5 -3 -10 1 -10 9 0 18 6 21 15 7z m-421 -27 c21 -7 21 -7
1 -15 -44 -17 -111 -8 -90 12 7 8 67 10 89 3z m501 -15 c-18 -5 -33 -5 -39 1
-7 7 4 10 30 9 39 -1 39 -1 9 -10z m440 1 c3 -5 -1 -10 -9 -10 -8 0 -18 5 -21
10 -3 6 1 10 9 10 8 0 18 -4 21 -10z m-1817 -37 c-10 -2 -26 -2 -35 0 -10 3
-2 5 17 5 19 0 27 -2 18 -5z m820 0 c-10 -2 -28 -2 -40 0 -13 2 -5 4 17 4 22
1 32 -1 23 -4z m957 -3 c3 -5 1 -10 -4 -10 -6 0 -11 5 -11 10 0 6 2 10 4 10 3
0 8 -4 11 -10z m-2308 -16 c-3 -3 -12 -4 -19 -1 -8 3 -5 6 6 6 11 1 17 -2 13
-5z m-1070 -10 c-3 -3 -12 -4 -19 -1 -8 3 -5 6 6 6 11 1 17 -2 13 -5z m2566
-21 c-7 -2 -19 -2 -25 0 -7 3 -2 5 12 5 14 0 19 -2 13 -5z m354 1 c-3 -3 -12
-4 -19 -1 -8 3 -5 6 6 6 11 1 17 -2 13 -5z m272 -5 c-19 -12 -76 -11 -84 0 -3
6 16 10 46 9 34 0 47 -3 38 -9z m71 1 c0 -5 -7 -10 -15 -10 -8 0 -15 5 -15 10
0 6 7 10 15 10 8 0 15 -4 15 -10z m250 6 c0 -2 -7 -6 -15 -10 -8 -3 -15 -1
-15 4 0 6 7 10 15 10 8 0 15 -2 15 -4z m283 -3 c-7 -2 -19 -2 -25 0 -7 3 -2 5
12 5 14 0 19 -2 13 -5z m-663 -73 c8 -5 10 -10 4 -10 -6 0 -26 -3 -43 -6 -19
-4 -31 -2 -31 4 0 6 10 13 23 15 12 2 24 5 27 5 3 1 12 -3 20 -8z m267 -6 c-3
-3 -12 -4 -19 -1 -8 3 -5 6 6 6 11 1 17 -2 13 -5z m-1002 -44 c-3 -5 -13 -10
-21 -10 -8 0 -14 5 -14 10 0 6 9 10 21 10 11 0 17 -4 14 -10z m948 -27 c-13
-2 -33 -2 -45 0 -13 2 -3 4 22 4 25 0 35 -2 23 -4z m70 0 c-7 -2 -21 -2 -30 0
-10 3 -4 5 12 5 17 0 24 -2 18 -5z"/>
<path d="M2070 725 c-7 -9 -8 -15 -2 -15 5 0 12 7 16 15 3 8 4 15 2 15 -2 0
-9 -7 -16 -15z"/>
<path d="M335 720 c3 -5 15 -10 25 -10 10 0 22 5 25 10 4 6 -7 10 -25 10 -18
0 -29 -4 -25 -10z"/>
<path d="M1360 701 c0 -16 6 -21 24 -21 31 0 29 34 -2 38 -17 3 -22 -2 -22
-17z"/>
<path d="M1660 700 c0 -13 11 -13 30 0 12 8 11 10 -7 10 -13 0 -23 -4 -23 -10z"/>
<path d="M2632 684 c-7 -8 -8 -14 -3 -14 10 0 25 19 20 25 -2 1 -10 -3 -17
-11z"/>
<path d="M1929 678 c29 -6 57 -6 62 -1 4 4 -20 9 -54 9 l-62 1 54 -9z"/>
<path d="M2123 683 c-29 -3 -43 -9 -43 -19 0 -16 21 -19 36 -4 6 6 37 14 70
19 44 6 49 8 19 8 -22 0 -59 -2 -82 -4z"/>
<path d="M2370 669 c0 -11 21 -11 39 0 9 6 5 9 -13 9 -14 0 -26 -4 -26 -9z"/>
<path d="M2448 673 c6 -2 18 -2 25 0 6 3 1 5 -13 5 -14 0 -19 -2 -12 -5z"/>
<path d="M2498 673 c6 -2 18 -2 25 0 6 3 1 5 -13 5 -14 0 -19 -2 -12 -5z"/>
<path d="M2400 650 c0 -5 17 -10 38 -9 33 1 34 2 12 9 -36 11 -50 11 -50 0z"/>
<path d="M2595 650 l-50 -7 58 -1 c32 -1 57 2 57 8 0 6 -3 9 -7 8 -5 0 -30 -4
-58 -8z"/>
<path d="M2680 650 c0 -5 5 -10 10 -10 6 0 10 5 10 10 0 6 -4 10 -10 10 -5 0
-10 -4 -10 -10z"/>
<path d="M2775 650 c-3 -5 3 -10 15 -10 12 0 18 5 15 10 -3 6 -10 10 -15 10
-5 0 -12 -4 -15 -10z"/>
<path d="M2860 650 c0 -5 5 -10 10 -10 6 0 10 5 10 10 0 6 -4 10 -10 10 -5 0
-10 -4 -10 -10z"/>
<path d="M3008 643 c6 -2 18 -2 25 0 6 3 1 5 -13 5 -14 0 -19 -2 -12 -5z"/>
<path d="M3098 643 c7 -3 16 -2 19 1 4 3 -2 6 -13 5 -11 0 -14 -3 -6 -6z"/>
<path d="M1848 633 c7 -3 16 -2 19 1 4 3 -2 6 -13 5 -11 0 -14 -3 -6 -6z"/>
<path d="M2426 622 c-8 -14 13 -20 58 -16 47 4 61 14 20 14 -16 0 -39 3 -50 6
-12 3 -24 1 -28 -4z"/>
<path d="M2603 622 c-24 -2 -43 -8 -43 -14 0 -6 10 -8 23 -4 12 3 46 6 76 6
30 0 51 3 47 7 -8 8 -39 10 -103 5z"/>
<path d="M3013 613 c9 -2 25 -2 35 0 9 3 1 5 -18 5 -19 0 -27 -2 -17 -5z"/>
<path d="M3076 593 c-11 -11 -6 -23 9 -23 8 0 15 4 15 9 0 13 -16 22 -24 14z"/>
<path d="M2848 583 c-10 -2 -18 -8 -18 -12 0 -11 110 -12 145 -2 26 8 23 9
-27 10 -31 1 -62 3 -70 5 -7 2 -21 2 -30 -1z"/>
<path d="M3280 580 c0 -13 11 -13 30 0 12 8 11 10 -7 10 -13 0 -23 -4 -23 -10z"/>
<path d="M2720 570 c0 -5 19 -10 42 -10 49 0 47 5 -4 14 -24 4 -38 3 -38 -4z"/>
<path d="M3018 563 c7 -3 16 -2 19 1 4 3 -2 6 -13 5 -11 0 -14 -3 -6 -6z"/>
<path d="M3400 550 c-11 -7 -12 -10 -2 -10 7 0 20 -7 28 -15 18 -17 46 -8 42
14 -4 19 -46 26 -68 11z"/>
<path d="M3070 540 c0 -5 9 -10 20 -10 11 0 20 5 20 10 0 6 -9 10 -20 10 -11
0 -20 -4 -20 -10z"/>
<path d="M3680 542 c0 -7 -12 -12 -27 -12 -22 0 -25 -2 -13 -10 10 -6 11 -10
3 -10 -23 0 -14 -18 11 -22 21 -4 25 0 29 26 3 17 3 33 1 35 -2 2 -4 -1 -4 -7z"/>
<path d="M3520 530 c0 -5 18 -10 40 -10 22 0 40 5 40 10 0 6 -18 10 -40 10
-22 0 -40 -4 -40 -10z"/>
<path d="M3917 532 c-4 -5 -32 -8 -64 -7 -32 2 -48 1 -35 -2 12 -2 22 -9 22
-14 0 -5 23 -9 50 -9 28 0 50 3 50 8 0 15 -18 34 -23 24z"/>
<path d="M4063 533 c26 -2 67 -2 90 0 23 2 2 3 -48 3 -49 0 -68 -1 -42 -3z"/>
<path d="M4260 531 c0 -5 8 -12 18 -14 9 -3 4 -5 -13 -6 -49 -2 -8 -21 45 -21
40 1 43 2 28 14 -10 7 -18 18 -18 25 0 6 -13 11 -30 11 -16 0 -30 -4 -30 -9z"/>
<path d="M4538 523 c19 -4 21 -7 11 -19 -9 -12 -6 -14 20 -14 24 0 31 4 31 20
0 17 -6 20 -42 19 -25 -1 -33 -4 -20 -6z"/>
<path d="M4135 511 c-6 -5 -21 -11 -35 -14 -16 -3 -10 -5 18 -6 31 -1 42 3 42
14 0 17 -11 20 -25 6z"/>
<path d="M3395 490 c-4 -6 5 -10 19 -10 14 0 26 5 26 10 0 6 -9 10 -19 10 -11
0 -23 -4 -26 -10z"/>
<path d="M3495 480 c44 -11 65 -11 65 0 0 6 -21 9 -47 9 -43 -1 -45 -2 -18 -9z"/>
<path d="M3725 480 c-3 -5 1 -10 9 -10 9 0 16 5 16 10 0 6 -4 10 -9 10 -6 0
-13 -4 -16 -10z"/>
<path d="M3368 433 c7 -3 16 -2 19 1 4 3 -2 6 -13 5 -11 0 -14 -3 -6 -6z"/>
</g>
</svg>
